<?xml version="1.0" encoding="utf-8"?>
<!-- Generator: Adobe Illustrator 27.5.0, SVG Export Plug-In . SVG Version: 6.00 Build 0)  -->
<svg version="1.1" xmlns="http://www.w3.org/2000/svg" xmlns:xlink="http://www.w3.org/1999/xlink" x="0px" y="0px"
	 viewBox="0 0 500 500" style="enable-background:new 0 0 500 500;" xml:space="preserve">
<g id="Background_Complete">
	<path style="fill-rule:evenodd;clip-rule:evenodd;fill:#F5F5F5;" d="M248.458,147.964c-3.656-45.309-51.321-32.138-51.321-32.138
		c-7.271-32.409-25.629-13.222-25.629-13.222s-27.826-61.741-67.386-53.183c-39.56,8.558-25.567,61.23-25.567,61.23
		s-22.216-12.885-37.606-6.43c-14.959,6.277-0.028,33.894,0.82,35.425c0.021,0.046,0.035,0.066,0.035,0.066
		c-0.16-0.01-0.313-0.015-0.466-0.026c-10.795-0.327-0.82,10.298-0.82,10.298l254.901,3.049l0,0
		C294.873,143.518,248.458,147.964,248.458,147.964z"/>
	<path style="fill-rule:evenodd;clip-rule:evenodd;fill:#F5F5F5;" d="M291.828,207.217c2.301-28.516,32.3-20.227,32.3-20.227
		c4.576-20.397,16.13-8.321,16.13-8.321s17.513-38.857,42.41-33.471c24.897,5.386,16.091,38.536,16.091,38.536
		s13.982-8.109,23.668-4.047c9.415,3.95,0.018,21.331-0.516,22.295c-0.013,0.029-0.022,0.042-0.022,0.042
		c0.101-0.007,0.197-0.01,0.293-0.016c6.794-0.205,0.516,6.481,0.516,6.481l-144.014,1.919l0,0
		C279.026,204.418,291.828,207.217,291.828,207.217z"/>
	<path style="fill-rule:evenodd;clip-rule:evenodd;fill:#EBEBEB;" d="M156.893,230.506c-1.682-20.84-23.606-14.782-23.606-14.782
		c-3.344-14.907-11.789-6.082-11.789-6.082S108.7,181.244,90.504,185.18c-18.196,3.936-11.76,28.164-11.76,28.164
		s-10.219-5.927-17.297-2.957c-6.881,2.887-0.013,15.59,0.377,16.294c0.01,0.021,0.016,0.03,0.016,0.03
		c-0.074-0.005-0.144-0.007-0.214-0.012c-4.965-0.15-0.377,4.737-0.377,4.737l117.245,1.402l0,0
		C178.243,228.461,156.893,230.506,156.893,230.506z"/>
	<path style="fill-rule:evenodd;clip-rule:evenodd;fill:#EBEBEB;" d="M455.286,265.666c-1.215-15.056-17.054-10.68-17.054-10.68
		c-2.416-10.77-8.517-4.394-8.517-4.394s-9.247-20.516-22.392-17.673c-13.146,2.844-8.496,20.347-8.496,20.347
		s-7.383-4.282-12.497-2.137c-4.971,2.086-0.009,11.263,0.273,11.772c0.007,0.015,0.011,0.022,0.011,0.022
		c-0.053-0.003-0.104-0.005-0.155-0.008c-3.587-0.109-0.273,3.422-0.273,3.422l71.701,1.013h3.849
		C461.555,264.189,455.286,265.666,455.286,265.666z"/>
	<path style="fill-rule:evenodd;clip-rule:evenodd;fill:#F5F5F5;" d="M390.344,122.004c1.267-15.695,17.778-11.133,17.778-11.133
		c2.519-11.227,8.878-4.58,8.878-4.58s9.639-21.387,23.343-18.423c13.704,2.964,8.856,21.211,8.856,21.211s7.696-4.463,13.027-2.227
		c5.182,2.174,0.01,11.741-0.284,12.271c-0.007,0.016-0.012,0.023-0.012,0.023c0.055-0.004,0.108-0.005,0.161-0.009
		c3.74-0.113,0.284,3.567,0.284,3.567l-79.839,1.056l0,0C382.726,120.464,390.344,122.004,390.344,122.004z"/>
	<path style="fill-rule:evenodd;clip-rule:evenodd;fill:#EBEBEB;" d="M308.701,92.102c-1.286-15.932-18.046-11.301-18.046-11.301
		c-2.557-11.396-9.012-4.649-9.012-4.649s-9.784-21.709-23.695-18.7c-13.91,3.009-8.99,21.53-8.99,21.53s-7.812-4.531-13.223-2.261
		c-5.26,2.207-0.01,11.918,0.288,12.456c0.007,0.016,0.012,0.023,0.012,0.023c-0.056-0.004-0.11-0.005-0.164-0.009
		c-3.796-0.115-0.288,3.621-0.288,3.621l76.62,1.072l0,0C312.012,90.538,308.701,92.102,308.701,92.102z"/>
</g>
<g id="Background_Simple" style="display:none;">
	<path style="display:inline;fill:#F5F5F5;" d="M199.34,63.302l1.135,1.601c9.566,13.5,11.219,31.13,3.764,45.732
		c-0.958,1.877-2.052,3.685-3.28,5.405c-8.837,12.384-24.306,19.788-39.659,18.983c-9.029-0.474-18.332-3.544-26.884-0.724
		c-11.13,3.67-16.643,15.701-20.936,26.519c-4.292,10.818-9.84,22.843-20.987,26.465c-6.981,2.268-14.776,0.573-21.383-2.717
		c-17.493-8.71-28.096-28.124-29.178-47.44c-1.082-19.315,6.301-38.306,17.326-54.154c15.446-22.202,38.938-39.501,65.764-44.393
		C151.847,33.687,181.711,42.447,199.34,63.302z"/>
	<path style="display:inline;fill:#F5F5F5;" d="M472.999,126.264l-0.65-1.331c-5.478-11.219-16.554-18.694-28.921-19.041
		c-1.59-0.045-3.183,0.025-4.766,0.216c-11.398,1.37-21.899,8.935-26.921,19.393c-2.954,6.151-4.287,13.422-9.249,18.064
		c-6.458,6.042-16.42,5.339-25.137,4.267c-8.717-1.072-18.687-1.75-25.119,4.321c-4.028,3.802-5.726,9.577-5.939,15.143
		c-0.562,14.736,8.457,28.782,20.856,36.488c12.399,7.706,27.646,9.689,42.13,8.123c20.291-2.194,40.247-11.49,53.195-27.484
		C475.424,168.43,480.429,145.485,472.999,126.264z"/>
	
		<ellipse transform="matrix(0.2321 -0.9727 0.9727 0.2321 139.3941 355.8269)" style="display:inline;fill:#F5F5F5;" cx="295.047" cy="89.633" rx="23.154" ry="23.154"/>
</g>
<g id="Sun">
	<g>
		<g>
			<g>
				<circle style="fill-rule:evenodd;clip-rule:evenodd;fill:#FF725E;" cx="369.828" cy="75.525" r="33.585"/>
			</g>
			<g style="opacity:0.9;">
				<circle style="fill-rule:evenodd;clip-rule:evenodd;fill:#FFFFFF;" cx="369.828" cy="75.525" r="33.585"/>
			</g>
		</g>
		<g>
			<g>
				<circle style="fill-rule:evenodd;clip-rule:evenodd;fill:#FF725E;" cx="369.828" cy="75.525" r="29.952"/>
			</g>
			<g style="opacity:0.6;">
				<circle style="fill-rule:evenodd;clip-rule:evenodd;fill:#FFFFFF;" cx="369.828" cy="75.525" r="29.952"/>
			</g>
		</g>
		<g>
			<g>
				<circle style="fill-rule:evenodd;clip-rule:evenodd;fill:#FF725E;" cx="369.828" cy="75.525" r="24.923"/>
			</g>
			<g style="opacity:0.3;">
				<circle style="fill-rule:evenodd;clip-rule:evenodd;fill:#FFFFFF;" cx="369.828" cy="75.525" r="24.923"/>
			</g>
		</g>
		<g>
			<circle style="fill-rule:evenodd;clip-rule:evenodd;fill:#FF725E;" cx="369.828" cy="75.525" r="19.956"/>
		</g>
	</g>
</g>
<g id="Water">
	<polygon style="fill:#FF725E;" points="480.069,486.121 13.344,488.159 14.408,329.9 480.069,329.9 	"/>
	<polygon style="opacity:0.8;fill:#FFFFFF;" points="480.069,486.121 13.344,488.159 14.408,329.9 480.069,329.9 	"/>
</g>
<g id="Mountain">
	<path style="fill:#FF725E;" d="M487.506,363.98l-3.868-54.386l-31.63-29.127l-4.551,2.275l-8.647-6.599l-4.779,0.91l-7.737-5.689
		l-18.66,11.833l-13.653-26.169l-12.06-5.689h-9.393c-1.68-6.584-3-11.756-3-11.756l-42.512-34.749l-13.678-34.749l-10.72-5.915
		l-5.915-9.242l-24.028-7.024l-7.393-13.678l-8.502-7.024l-3.327-9.611c0,0-9.242-4.436-9.981-4.806
		c-0.739-0.37-8.872,5.545-10.357,5.915c-1.485,0.37-8.866,2.588-9.975,2.957c-1.109,0.37-9.611,15.156-9.611,15.156l-22.919,12.569
		l-9.981,19.962c0,0-10.72,7.763-11.829,8.133c-1.109,0.37-11.09,22.919-11.09,22.919l-16.265,17.744l-8.502,20.701l-0.002,0.001
		l-6.772-22.949l-14.268-10.976l-23.597,15.915l-18.11,5.488l-15.915-5.488l-12.073,8.78l-27.13,38.963l-0.956,95.213h67.44h22.11
		l174.799,1.083l90.162-1.083l-0.003,0.188H487.506z"/>
	<polygon style="opacity:0.3;" points="15.073,268.579 24.785,254.631 42.068,229.714 54.277,220.835 52.071,244.502 
		44.494,253.703 50.988,297 59.004,363.792 14.117,363.792 	"/>
	<polygon style="opacity:0.3;" points="240.363,330.745 217.632,318.297 215.467,302.602 192.736,287.447 179.205,280.411 
		175.958,249.562 145.649,268.504 108.305,363.792 261.99,363.185 	"/>
	<path style="opacity:0.3;" d="M168.618,177.546l-6.435,12.26l4.96,36.045l20.899,10.294c0,0,37.219,50.571,38.138,51.49
		c0.919,0.919-31.825-68.264-31.825-68.264L168.618,177.546z"/>
	<polygon style="opacity:0.3;" points="181.579,167.261 190.953,197.136 202.903,204.949 190.229,150.143 	"/>
	<path style="opacity:0.3;" d="M213.559,137.387c0.46,0.919,2.145,12.409,3.6,12.409s0-18.384,0-18.384L213.559,137.387z"/>
	<polygon style="opacity:0.3;" points="260.524,254.95 247.782,240.549 257.81,294.236 273.393,302.749 282.388,304.304 
		303.268,323.439 276.151,286.663 	"/>
	<path style="opacity:0.1;fill:#FFFFFF;" d="M379.508,278.742c-0.37-1.505-9.981-39.158-9.981-39.158l-42.512-34.749l-13.678-34.749
		l-10.72-5.915l-5.915-9.242l-24.028-7.024l-7.393-13.678l-8.502-7.024l-3.327-9.611c0,0-9.242-4.436-9.981-4.806
		c-0.739-0.37-8.872,5.545-10.357,5.915c-1.485,0.37-8.866,2.588-9.975,2.957c-0.118,0.039-0.324,0.25-0.59,0.58
		c3.042,6.794,9.494,20.82,9.494,20.82v11.95l13.329,25.278v12.41l26.198,26.657l4.137-24.359l45.961,76.755l2.758-26.657
		l27.576,20.223l5.515,16.086l12.409,8.273l9.478,0.487C379.537,283.501,379.591,279.078,379.508,278.742z"/>
	<g>
		<polygon style="opacity:0.3;" points="434.258,316.193 416.964,296.396 416.053,292.072 409.227,289.796 407.634,283.197 
			426.293,271.364 423.335,280.467 424.245,290.707 428.797,293.779 428.341,302.539 		"/>
		<polygon style="opacity:0.3;" points="447.456,282.742 445.181,294.803 451.097,299.809 459.744,313.235 456.559,296.623 
			450.642,288.886 452.007,280.467 		"/>
	</g>
	<polygon style="opacity:0.3;" points="89.544,219.997 92.752,245.327 104.972,268.172 108.305,238.281 111.898,204.921 	"/>
	<polygon style="opacity:0.3;" points="132.94,238.844 136.045,245.836 141.443,218.143 	"/>
	<polygon style="opacity:0.1;fill:#FFFFFF;" points="243.471,112.788 251.521,119.478 253.591,129.136 265.281,134.228 
		256.779,127.205 253.452,117.593 	"/>
	<polygon style="opacity:0.1;fill:#FFFFFF;" points="302.618,164.171 308.195,173.063 310.888,173.063 327.016,204.835 
		313.338,170.086 	"/>
	<path style="opacity:0.1;fill:#FFFFFF;" d="M248.884,162.469l3.634,9.59l20.286,12.443c-1.064,0.228-20.706-24.359-20.706-24.359
		l-4.316-13.295L248.884,162.469z"/>
	<polygon style="opacity:0.3;" points="375.292,262.169 379.508,278.742 379.447,289.955 369.926,289.675 384.878,309.594 
		379.872,294.12 389.429,286.383 404.903,300.264 391.25,280.012 390.795,273.167 383.74,260.442 381.92,251.339 372.527,251.339 	
		"/>
</g>
<g id="Land">
	<g>
		<g>
			<polygon style="fill:#263238;" points="187.709,303.695 185.024,317.822 187.709,318.499 185.024,319.37 182.34,333.11 
				185.695,333.787 182.34,334.948 180.55,343.946 196.658,343.946 191.848,323.821 189.275,323.144 191.512,322.563 			"/>
			<polygon style="fill:#263238;" points="164.9,305.607 162.47,318.392 164.9,319.005 162.47,319.793 160.04,332.227 
				163.077,332.84 160.04,333.891 158.421,342.035 172.998,342.035 168.645,323.821 166.317,323.208 168.342,322.683 			"/>
			<g>
				<polyline style="fill:#263238;" points="165.709,341.166 171.376,317.455 174.408,316.657 171.772,315.973 176.252,293.744 
					179.415,310.387 176.252,311.185 179.415,312.211 182.578,328.398 178.625,329.196 182.578,330.564 184.687,341.166 				"/>
			</g>
			<polygon style="fill:#263238;" points="155.922,289.824 153.237,303.951 155.922,304.628 153.237,305.499 150.553,319.238 
				153.908,319.916 150.553,321.077 148.763,330.075 164.871,330.075 160.061,309.95 157.488,309.272 159.725,308.692 			"/>
			<polygon style="fill:#263238;" points="243.68,324.404 240.995,338.53 243.68,339.208 240.995,340.078 238.311,353.818 
				241.667,354.495 238.311,355.656 236.521,364.655 252.629,364.655 247.819,344.529 245.246,343.852 247.483,343.271 			"/>
			<polygon style="fill:#263238;" points="210.21,321.27 207.78,334.055 210.21,334.668 207.78,335.456 205.35,347.89 
				208.387,348.503 205.35,349.554 203.731,357.698 218.308,357.698 213.955,339.484 211.627,338.871 213.652,338.345 			"/>
			<g>
				<polyline style="fill:#263238;" points="211.02,356.829 216.686,333.118 219.717,332.32 217.082,331.636 221.563,309.407 
					224.725,326.05 221.563,326.848 224.725,327.874 227.888,344.061 223.935,344.859 227.888,346.227 229.997,356.829 				"/>
			</g>
			<polygon style="fill:#263238;" points="198.233,311.094 195.549,325.221 198.233,325.898 195.549,326.769 192.864,340.508 
				196.22,341.186 192.864,342.347 191.074,351.345 207.182,351.345 202.372,331.22 199.799,330.542 202.037,329.962 			"/>
			<polygon style="fill:#263238;" points="129.45,298.717 127.02,311.502 129.45,312.115 127.02,312.903 124.59,325.338 
				127.627,325.951 124.59,327.001 122.971,335.145 137.548,335.145 133.195,316.931 130.867,316.318 132.892,315.793 			"/>
			<g>
				<polyline style="fill:#263238;" points="133.923,327.294 139.589,303.584 142.62,302.786 139.985,302.102 144.465,279.873 
					147.628,296.516 144.465,297.314 147.628,298.34 150.791,314.527 146.838,315.325 150.791,316.693 152.9,327.294 				"/>
			</g>
			<polyline style="fill:#263238;" points="119.455,321.699 116.099,322.86 114.309,331.858 130.417,331.858 125.607,311.733 
				123.034,311.056 125.272,310.475 121.468,291.607 118.784,305.734 121.468,306.411 118.784,307.282 116.099,321.022 			"/>
			<polygon style="fill:#263238;" points="95.294,281.495 92.246,297.535 95.294,298.304 92.246,299.293 89.197,314.893 
				93.008,315.662 89.197,316.981 87.165,327.198 105.455,327.198 99.993,304.346 97.072,303.577 99.612,302.918 			"/>
			<polygon style="fill:#263238;" points="67.181,277.811 64.132,293.851 67.181,294.62 64.132,295.609 61.084,311.21 
				64.894,311.978 61.084,313.297 59.052,323.514 77.341,323.514 71.88,300.663 68.959,299.893 71.499,299.234 			"/>
			<polygon style="fill:#263238;" points="36.336,271.194 33.287,287.234 36.336,288.003 33.287,288.992 30.239,304.592 
				34.049,305.361 30.239,306.68 28.207,316.897 46.497,316.897 41.035,294.046 38.114,293.276 40.654,292.617 			"/>
			<g>
				<polyline style="fill:#263238;" points="99.469,331.22 105.136,307.509 108.167,306.711 105.531,306.027 110.012,283.798 
					113.175,300.441 110.012,301.239 113.175,302.265 116.338,318.452 112.384,319.25 116.338,320.618 118.446,331.22 				"/>
			</g>
			<g>
				<polyline style="fill:#263238;" points="46.583,325.604 52.25,301.893 55.281,301.095 52.645,300.411 57.126,278.183 
					60.289,294.826 57.126,295.624 60.289,296.65 63.452,312.837 59.498,313.635 63.452,315.003 65.561,325.604 				"/>
			</g>
			<g>
				<polyline style="fill:#263238;" points="37.774,310.222 43.441,286.511 46.472,285.713 43.836,285.029 48.317,262.8 
					51.48,279.444 48.317,280.242 51.48,281.267 54.643,297.455 50.689,298.253 54.643,299.621 56.751,310.222 				"/>
			</g>
			<g>
				<polyline style="fill:#263238;" points="78.018,328.546 82.036,311.733 84.186,311.167 82.317,310.682 85.494,294.919 
					87.737,306.721 85.494,307.287 87.737,308.014 89.98,319.493 87.176,320.059 89.98,321.029 91.475,328.546 				"/>
			</g>
			<g>
				<polyline style="fill:#263238;" points="69.047,320.809 73.065,303.995 75.215,303.43 73.346,302.944 76.523,287.182 
					78.766,298.984 76.523,299.549 78.766,300.277 81.009,311.755 78.205,312.321 81.009,313.291 82.504,320.809 				"/>
			</g>
			<g>
				<polyline style="fill:#263238;" points="16.363,299.012 20.381,282.199 22.531,281.633 20.662,281.148 23.839,265.385 
					26.082,277.187 23.839,277.753 26.082,278.48 28.325,289.959 25.521,290.525 28.325,291.495 29.82,299.012 				"/>
			</g>
		</g>
		<polygon style="fill:#263238;" points="280.388,365.811 222.549,337.619 108.305,316.193 14.117,293.779 14.117,371.603 		"/>
	</g>
	<g>
		<g>
			<polygon style="fill:#263238;" points="320.567,312.678 323.252,326.805 320.567,327.482 323.252,328.353 325.936,342.092 
				322.581,342.77 325.936,343.931 327.726,352.929 311.618,352.929 316.428,332.804 319.001,332.126 316.764,331.546 			"/>
			<polygon style="fill:#263238;" points="343.376,314.59 345.806,327.375 343.376,327.988 345.806,328.776 348.236,341.21 
				345.199,341.823 348.236,342.874 349.855,351.018 335.278,351.018 339.631,332.804 341.959,332.191 339.934,331.665 			"/>
			<g>
				<polyline style="fill:#263238;" points="342.567,350.149 336.9,326.438 333.869,325.64 336.504,324.956 332.024,302.727 
					328.861,319.37 332.024,320.168 328.861,321.194 325.698,337.381 329.651,338.179 325.698,339.547 323.589,350.149 				"/>
			</g>
			<polygon style="fill:#263238;" points="352.354,298.807 355.039,312.934 352.354,313.611 355.039,314.482 357.723,328.221 
				354.368,328.898 357.723,330.06 359.513,339.058 343.405,339.058 348.215,318.932 350.788,318.255 348.551,317.675 			"/>
			<polygon style="fill:#263238;" points="298.066,330.253 300.496,343.038 298.066,343.651 300.496,344.439 302.926,356.873 
				299.889,357.486 302.926,358.537 304.546,366.681 290.175,365.811 294.321,348.467 296.649,347.854 294.624,347.328 			"/>
			<g>
				<polyline style="fill:#263238;" points="297.257,365.811 291.59,342.1 288.559,341.303 291.194,340.619 286.714,318.39 
					283.551,335.033 286.714,335.831 283.551,336.857 280.388,353.044 284.341,353.842 280.388,355.21 278.279,365.811 				"/>
			</g>
			<polygon style="fill:#263238;" points="310.043,320.077 312.727,334.204 310.043,334.881 312.727,335.752 315.412,349.491 
				312.056,350.169 315.412,351.33 317.202,360.328 301.094,360.328 305.904,340.203 308.477,339.525 306.239,338.945 			"/>
			<polygon style="fill:#263238;" points="378.826,307.7 381.256,320.485 378.826,321.098 381.256,321.886 383.686,334.32 
				380.649,334.933 383.686,335.984 385.305,344.128 370.728,344.128 375.081,325.914 377.409,325.301 375.384,324.776 			"/>
			<g>
				<polyline style="fill:#263238;" points="374.354,336.277 368.687,312.566 365.656,311.768 368.291,311.084 363.811,288.855 
					360.648,305.499 363.811,306.297 360.648,307.323 357.485,323.51 361.438,324.308 357.485,325.676 355.376,336.277 				"/>
			</g>
			<polyline style="fill:#263238;" points="388.821,330.682 392.177,331.843 393.967,340.841 377.859,340.841 382.669,320.716 
				385.242,320.038 383.004,319.458 386.808,300.59 389.492,314.717 386.808,315.394 389.492,316.265 392.177,330.004 			"/>
			<polygon style="fill:#263238;" points="412.982,290.478 416.03,306.518 412.982,307.287 416.03,308.276 419.079,323.876 
				415.268,324.645 419.079,325.964 421.111,336.181 402.821,336.181 408.283,313.329 411.204,312.56 408.664,311.901 			"/>
			<polygon style="fill:#263238;" points="441.095,286.794 444.144,302.834 441.095,303.603 444.144,304.592 447.192,320.192 
				443.382,320.961 447.192,322.28 449.224,332.497 430.935,332.497 436.396,309.645 439.317,308.876 436.777,308.217 			"/>
			<polygon style="fill:#263238;" points="471.94,280.177 474.989,296.217 471.94,296.986 474.989,297.975 478.037,313.575 
				474.227,314.344 478.037,315.663 480.069,325.88 461.779,325.88 467.241,303.028 470.162,302.259 467.622,301.6 			"/>
			<g>
				<polyline style="fill:#263238;" points="408.807,340.203 403.14,316.492 400.109,315.694 402.745,315.01 398.264,292.781 
					395.101,309.424 398.264,310.222 395.101,311.248 391.938,327.435 395.892,328.233 391.938,329.601 389.83,340.203 				"/>
			</g>
			<g>
				<polyline style="fill:#263238;" points="461.693,334.587 456.026,310.876 452.995,310.078 455.631,309.394 451.15,287.165 
					447.987,303.809 451.15,304.607 447.987,305.633 444.824,321.82 448.778,322.618 444.824,323.986 442.715,334.587 				"/>
			</g>
			<g>
				<polyline style="fill:#263238;" points="470.502,319.205 464.835,295.494 461.804,294.696 464.44,294.012 459.959,271.783 
					456.796,288.427 459.959,289.224 456.796,290.25 453.633,306.438 457.587,307.236 453.633,308.604 451.525,319.205 				"/>
			</g>
			<g>
				<polyline style="fill:#263238;" points="430.258,337.529 426.24,320.716 424.09,320.15 425.959,319.665 422.782,303.902 
					420.539,315.704 422.782,316.27 420.539,316.997 418.296,328.476 421.1,329.042 418.296,330.012 416.801,337.529 				"/>
			</g>
			<g>
				<polyline style="fill:#263238;" points="439.229,329.792 435.211,312.978 433.061,312.412 434.93,311.927 431.753,296.165 
					429.51,307.966 431.753,308.532 429.51,309.26 427.267,320.738 430.071,321.304 427.267,322.274 425.772,329.792 				"/>
			</g>
			<g>
				<polyline style="fill:#263238;" points="487.506,312.978 483.488,296.165 481.338,295.599 483.207,295.114 480.03,279.351 
					477.787,291.153 480.03,291.719 477.787,292.446 475.544,303.925 478.348,304.491 475.544,305.461 474.049,312.978 				"/>
			</g>
		</g>
		<path style="fill:#263238;" d="M278.279,365.811c0,0,42.966-17.995,48.846-21.986c5.88-3.991,56.448-9.977,59.388-11.117
			c2.94-1.14,38.514-8.266,42.924-10.262c4.41-1.995,21.756-4.276,21.756-4.276s36.312-9.122,36.312-8.552
			c0,0.57,0,119.152,0,119.152s-163.908-23.944-162.732-25.085s22.932-6.841,26.166-14.823c3.234-7.982,4.41-8.837-4.116-13.967
			c-8.526-5.131-8.82-0.57-18.228-2.565c-9.408-1.995-11.466-4.561-22.344-4.846C295.374,367.2,278.279,365.811,278.279,365.811z"/>
	</g>
	<g>
		<g style="opacity:0.8;">
			<path style="fill:#FFFFFF;" d="M300.935,410.857c-11.235,2.838-23.424,4.845-36.034,6.551c-2.225,0.301-4.651,1.631-5.121,3.826
				c-0.483,2.259,1.545,4.275,3.594,5.342c8.586,4.475,20.219,1.223,27.756,7.301c2.277,1.836,3.992,4.42,6.621,5.701
				c5.248,2.558,11.553-1.082,17.287,0.017c7.857,1.505,12.037,11.188,19.858,12.87c3.592,0.773,7.335-0.318,10.991,0.052
				c3.767,0.38,7.183,2.271,10.739,3.572c8.43,3.084,17.663,2.845,26.631,2.469c10.579-0.444,21.152-1.024,31.716-1.742
				L300.935,410.857z"/>
		</g>
		<path style="fill:#FF725E;" d="M285.378,417.549c0,0,26.488-18.327,28.897-19.176c2.409-0.849,55.318-1.631,61.231-3.754
			c5.913-2.123,35.694-13.376,35.694-13.376l76.306-11.04v83.653c0,0-19.151,7.431-36.013,7.856
			c-16.862,0.425-31.972-3.822-47.957-8.28c-15.986-4.459-43.359-9.979-60.44-11.465c-17.081-1.486-19.052-5.733-22.117-9.342
			s-16.643-1.274-37.665-5.308C262.291,423.281,259.631,418.398,285.378,417.549z"/>
		<path style="fill:#455A64;" d="M411.2,381.242c0,0-29.782,11.253-35.694,13.376c-5.756,2.067-56.336,2.927-61.231,3.754
			l-10.049,6.245c0,0,0,0-0.001,0l19.18,5.81c0,0,6.876,6.385,6.876,7.367c0,0.982,12.525,10.975,12.525,10.975l31.68,2.532
			l19.156,10.56l17.236,3.906l76.627-16.998v-58.569L411.2,381.242z"/>
		<path style="opacity:0.3;" d="M411.2,381.242c0,0-29.782,11.253-35.694,13.376c-5.756,2.067-56.336,2.927-61.231,3.754
			l-10.049,6.245c0,0,0,0-0.001,0l19.18,5.81c0,0,6.876,6.385,6.876,7.367c0,0.982,12.525,10.975,12.525,10.975l31.68,2.532
			l19.156,10.56l17.236,3.906l76.627-16.998v-58.569L411.2,381.242z"/>
		<g>
			<polygon style="fill:#455A64;" points="386.3,364.73 384.515,374.122 386.3,374.572 384.515,375.151 382.731,384.285 
				384.962,384.735 382.731,385.507 381.541,391.49 392.249,391.49 389.052,378.11 387.341,377.66 388.829,377.274 			"/>
			<polygon style="fill:#455A64;" points="366.829,363.168 364.377,376.073 366.829,376.691 364.377,377.487 361.924,390.038 
				364.99,390.657 361.924,391.718 360.289,399.938 375.004,399.938 370.61,381.553 368.26,380.934 370.303,380.404 			"/>
			<polygon style="fill:#455A64;" points="352.678,371.928 350.899,381.289 352.678,381.738 350.899,382.315 349.12,391.419 
				351.343,391.868 349.12,392.638 347.934,398.601 358.608,398.601 355.42,385.264 353.715,384.815 355.198,384.431 			"/>
			<polygon style="fill:#455A64;" points="358.015,381.891 356.236,391.252 358.015,391.701 356.236,392.278 354.457,401.383 
				356.68,401.832 354.457,402.601 353.271,408.564 363.945,408.564 360.757,395.228 359.052,394.779 360.535,394.394 			"/>
			<polygon style="fill:#455A64;" points="378.3,374.019 376.918,381.289 378.3,381.638 376.918,382.086 375.537,389.157 
				377.264,389.505 375.537,390.103 374.615,394.734 382.905,394.734 380.43,384.376 379.106,384.028 380.257,383.729 			"/>
			<polygon style="fill:#455A64;" points="340.411,358.146 337.549,373.206 340.411,373.928 337.549,374.857 334.687,389.504 
				338.264,390.226 334.687,391.464 332.779,401.057 349.951,401.057 344.823,379.602 342.081,378.88 344.466,378.261 			"/>
			<polygon style="fill:#455A64;" points="326.431,371.128 324.34,382.131 326.431,382.658 324.34,383.337 322.249,394.038 
				324.863,394.565 322.249,395.47 320.855,402.478 333.401,402.478 329.655,386.803 327.651,386.276 329.393,385.823 			"/>
			<polygon style="fill:#455A64;" points="407.858,361.752 406.073,371.144 407.858,371.594 406.073,372.173 404.288,381.307 
				406.519,381.758 404.288,382.53 403.098,388.512 413.807,388.512 410.609,375.132 408.899,374.682 410.386,374.296 			"/>
			<polygon style="fill:#455A64;" points="431.617,354.085 429.832,363.476 431.617,363.926 429.832,364.505 428.047,373.639 
				430.278,374.09 428.047,374.862 426.857,380.844 437.566,380.844 434.368,367.464 432.658,367.014 434.145,366.628 			"/>
			<g>
				<polyline style="fill:#455A64;" points="426.856,396.104 421.54,373.862 418.697,373.114 421.169,372.472 416.966,351.621 
					413.999,367.233 416.966,367.981 413.999,368.944 411.032,384.128 414.741,384.876 411.032,386.159 409.054,396.104 				"/>
			</g>
			<g>
				<polyline style="fill:#455A64;" points="403.031,391.49 399.017,374.696 396.87,374.131 398.737,373.647 395.564,357.903 
					393.324,369.691 395.564,370.256 393.324,370.982 391.084,382.447 393.884,383.012 391.084,383.981 389.59,391.49 				"/>
			</g>
			<g>
				<polyline style="fill:#455A64;" points="446.647,379.847 442.634,363.053 440.487,362.488 442.354,362.004 439.18,346.26 
					436.94,358.048 439.18,358.613 436.94,359.34 434.7,370.804 437.5,371.369 434.7,372.338 433.207,379.847 				"/>
			</g>
			<polygon style="fill:#455A64;" points="445.368,357.755 443.583,367.147 445.368,367.597 443.583,368.176 441.798,377.31 
				444.029,377.76 441.798,378.532 440.609,384.515 451.317,384.515 448.12,371.135 446.409,370.685 447.896,370.299 			"/>
			<polygon style="fill:#455A64;" points="469.127,350.087 467.342,359.479 469.127,359.929 467.342,360.508 465.557,369.642 
				467.788,370.093 465.557,370.865 464.368,376.847 475.076,376.847 471.878,363.467 470.168,363.017 471.655,362.631 			"/>
			<g>
				<polyline style="fill:#455A64;" points="464.366,392.107 459.05,369.865 456.207,369.117 458.679,368.475 454.476,347.624 
					451.509,363.236 454.476,363.984 451.509,364.947 448.542,380.131 452.251,380.879 448.542,382.162 446.565,392.107 				"/>
			</g>
			<g>
				<polyline style="fill:#455A64;" points="484.158,375.849 480.144,359.056 477.997,358.491 479.864,358.007 476.691,342.263 
					474.451,354.051 476.691,354.616 474.451,355.342 472.21,366.807 475.01,367.372 472.21,368.341 470.717,375.849 				"/>
			</g>
		</g>
		<g style="opacity:0.3;">
			<polygon points="386.3,364.73 384.515,374.122 386.3,374.572 384.515,375.151 382.731,384.285 384.962,384.735 382.731,385.507 
				381.541,391.49 392.249,391.49 389.052,378.11 387.341,377.66 388.829,377.274 			"/>
			<polygon points="366.829,363.168 364.377,376.073 366.829,376.691 364.377,377.487 361.924,390.038 364.99,390.657 
				361.924,391.718 360.289,399.938 375.004,399.938 370.61,381.553 368.26,380.934 370.303,380.404 			"/>
			<polygon points="352.678,371.928 350.899,381.289 352.678,381.738 350.899,382.315 349.12,391.419 351.343,391.868 
				349.12,392.638 347.934,398.601 358.608,398.601 355.42,385.264 353.715,384.815 355.198,384.431 			"/>
			<polygon points="358.015,381.891 356.236,391.252 358.015,391.701 356.236,392.278 354.457,401.383 356.68,401.832 
				354.457,402.601 353.271,408.564 363.945,408.564 360.757,395.228 359.052,394.779 360.535,394.394 			"/>
			<polygon points="378.3,374.019 376.918,381.289 378.3,381.638 376.918,382.086 375.537,389.157 377.264,389.505 375.537,390.103 
				374.615,394.734 382.905,394.734 380.43,384.376 379.106,384.028 380.257,383.729 			"/>
			<polygon points="340.411,358.146 337.549,373.206 340.411,373.928 337.549,374.857 334.687,389.504 338.264,390.226 
				334.687,391.464 332.779,401.057 349.951,401.057 344.823,379.602 342.081,378.88 344.466,378.261 			"/>
			<polygon points="326.431,371.128 324.34,382.131 326.431,382.658 324.34,383.337 322.249,394.038 324.863,394.565 
				322.249,395.47 320.855,402.478 333.401,402.478 329.655,386.803 327.651,386.276 329.393,385.823 			"/>
			<polygon points="407.858,361.752 406.073,371.144 407.858,371.594 406.073,372.173 404.288,381.307 406.519,381.758 
				404.288,382.53 403.098,388.512 413.807,388.512 410.609,375.132 408.899,374.682 410.386,374.296 			"/>
			<polygon points="431.617,354.085 429.832,363.476 431.617,363.926 429.832,364.505 428.047,373.639 430.278,374.09 
				428.047,374.862 426.857,380.844 437.566,380.844 434.368,367.464 432.658,367.014 434.145,366.628 			"/>
			<g>
				<polyline points="426.856,396.104 421.54,373.862 418.697,373.114 421.169,372.472 416.966,351.621 413.999,367.233 
					416.966,367.981 413.999,368.944 411.032,384.128 414.741,384.876 411.032,386.159 409.054,396.104 				"/>
			</g>
			<g>
				<polyline points="403.031,391.49 399.017,374.696 396.87,374.131 398.737,373.647 395.564,357.903 393.324,369.691 
					395.564,370.256 393.324,370.982 391.084,382.447 393.884,383.012 391.084,383.981 389.59,391.49 				"/>
			</g>
			<g>
				<polyline points="446.647,379.847 442.634,363.053 440.487,362.488 442.354,362.004 439.18,346.26 436.94,358.048 
					439.18,358.613 436.94,359.34 434.7,370.804 437.5,371.369 434.7,372.338 433.207,379.847 				"/>
			</g>
			<polygon points="445.368,357.755 443.583,367.147 445.368,367.597 443.583,368.176 441.798,377.31 444.029,377.76 
				441.798,378.532 440.609,384.515 451.317,384.515 448.12,371.135 446.409,370.685 447.896,370.299 			"/>
			<polygon points="469.127,350.087 467.342,359.479 469.127,359.929 467.342,360.508 465.557,369.642 467.788,370.093 
				465.557,370.865 464.368,376.847 475.076,376.847 471.878,363.467 470.168,363.017 471.655,362.631 			"/>
			<g>
				<polyline points="464.366,392.107 459.05,369.865 456.207,369.117 458.679,368.475 454.476,347.624 451.509,363.236 
					454.476,363.984 451.509,364.947 448.542,380.131 452.251,380.879 448.542,382.162 446.565,392.107 				"/>
			</g>
			<g>
				<polyline points="484.158,375.849 480.144,359.056 477.997,358.491 479.864,358.007 476.691,342.263 474.451,354.051 
					476.691,354.616 474.451,355.342 472.21,366.807 475.01,367.372 472.21,368.341 470.717,375.849 				"/>
			</g>
		</g>
		<g>
			<polygon style="fill:#455A64;" points="353.376,384.475 355.587,396.107 353.376,396.664 355.587,397.381 357.797,408.694 
				355.034,409.251 357.797,410.207 359.271,417.616 346.008,417.616 349.969,401.046 352.087,400.488 350.245,400.01 			"/>
			<polygon style="opacity:0.2;" points="353.376,384.475 355.587,396.107 353.376,396.664 355.587,397.381 357.797,408.694 
				355.034,409.251 357.797,410.207 359.271,417.616 346.008,417.616 349.969,401.046 352.087,400.488 350.245,400.01 			"/>
		</g>
		<g>
			<polygon style="fill:#455A64;" points="365.204,403.074 366.623,410.542 365.204,410.9 366.623,411.36 368.042,418.623 
				366.268,418.981 368.042,419.595 368.988,424.351 360.474,424.351 363.016,413.713 364.376,413.355 363.194,413.048 			"/>
			<polygon style="opacity:0.2;" points="365.204,403.074 366.623,410.542 365.204,410.9 366.623,411.36 368.042,418.623 
				366.268,418.981 368.042,419.595 368.988,424.351 360.474,424.351 363.016,413.713 364.376,413.355 363.194,413.048 			"/>
		</g>
		<g>
			<polygon style="fill:#455A64;" points="376.524,382.947 378.533,393.517 376.524,394.024 378.533,394.676 380.542,404.957 
				378.031,405.463 380.542,406.332 381.881,413.065 369.828,413.065 373.427,398.006 375.352,397.499 373.678,397.065 			"/>
			<polygon style="opacity:0.2;" points="376.524,382.947 378.533,393.517 376.524,394.024 378.533,394.676 380.542,404.957 
				378.031,405.463 380.542,406.332 381.881,413.065 369.828,413.065 373.427,398.006 375.352,397.499 373.678,397.065 			"/>
		</g>
		<g>
			<polygon style="fill:#455A64;" points="389.914,393.122 392.124,404.753 389.914,405.311 392.124,406.028 394.335,417.341 
				391.572,417.898 394.335,418.854 395.808,426.263 382.546,426.263 386.506,409.693 388.625,409.135 386.783,408.657 			"/>
			<polygon style="opacity:0.2;" points="389.914,393.122 392.124,404.753 389.914,405.311 392.124,406.028 394.335,417.341 
				391.572,417.898 394.335,418.854 395.808,426.263 382.546,426.263 386.506,409.693 388.625,409.135 386.783,408.657 			"/>
		</g>
		<g>
			<polygon style="fill:#455A64;" points="401.741,386.366 403.16,393.833 401.741,394.191 403.16,394.652 404.579,401.914 
				402.806,402.272 404.579,402.886 405.526,407.643 397.011,407.643 399.554,397.004 400.914,396.646 399.731,396.34 			"/>
			<polygon style="opacity:0.2;" points="401.741,386.366 403.16,393.833 401.741,394.191 403.16,394.652 404.579,401.914 
				402.806,402.272 404.579,402.886 405.526,407.643 397.011,407.643 399.554,397.004 400.914,396.646 399.731,396.34 			"/>
		</g>
		<g>
			<polygon style="fill:#455A64;" points="409.724,390.433 411.733,401.004 409.724,401.51 411.733,402.162 413.741,412.443 
				411.23,412.95 413.741,413.818 415.081,420.552 403.028,420.552 406.627,405.492 408.552,404.986 406.878,404.551 			"/>
			<polygon style="opacity:0.2;" points="409.724,390.433 411.733,401.004 409.724,401.51 411.733,402.162 413.741,412.443 
				411.23,412.95 413.741,413.818 415.081,420.552 403.028,420.552 406.627,405.492 408.552,404.986 406.878,404.551 			"/>
		</g>
		<g>
			<polygon style="fill:#455A64;" points="424.199,366.494 426.208,377.064 424.199,377.571 426.208,378.223 428.217,388.503 
				425.706,389.01 428.217,389.879 429.556,396.612 417.503,396.612 421.102,381.553 423.027,381.046 421.353,380.612 			"/>
			<polygon style="opacity:0.2;" points="424.199,366.494 426.208,377.064 424.199,377.571 426.208,378.223 428.217,388.503 
				425.706,389.01 428.217,389.879 429.556,396.612 417.503,396.612 421.102,381.553 423.027,381.046 421.353,380.612 			"/>
		</g>
		<g>
			<polygon style="fill:#455A64;" points="436.954,392.583 438.963,403.154 436.954,403.661 438.963,404.312 440.972,414.593 
				438.461,415.1 440.972,415.969 442.311,422.702 430.258,422.702 433.857,407.643 435.782,407.136 434.108,406.702 			"/>
			<polygon style="opacity:0.2;" points="436.954,392.583 438.963,403.154 436.954,403.661 438.963,404.312 440.972,414.593 
				438.461,415.1 440.972,415.969 442.311,422.702 430.258,422.702 433.857,407.643 435.782,407.136 434.108,406.702 			"/>
		</g>
		<g>
			<polygon style="fill:#455A64;" points="457.184,381.891 459.796,395.638 457.184,396.297 459.796,397.144 462.408,410.514 
				459.143,411.173 462.408,412.303 464.15,421.06 448.476,421.06 453.156,401.475 455.66,400.816 453.483,400.251 			"/>
			<polygon style="opacity:0.2;" points="457.184,381.891 459.796,395.638 457.184,396.297 459.796,397.144 462.408,410.514 
				459.143,411.173 462.408,412.303 464.15,421.06 448.476,421.06 453.156,401.475 455.66,400.816 453.483,400.251 			"/>
		</g>
		<g>
			<polygon style="fill:#455A64;" points="423.388,399.452 424.754,406.64 423.388,406.985 424.754,407.428 426.12,414.419 
				424.412,414.764 426.12,415.355 427.031,419.934 418.834,419.934 421.282,409.693 422.591,409.348 421.453,409.052 			"/>
			<polygon style="opacity:0.2;" points="423.388,399.452 424.754,406.64 423.388,406.985 424.754,407.428 426.12,414.419 
				424.412,414.764 426.12,415.355 427.031,419.934 418.834,419.934 421.282,409.693 422.591,409.348 421.453,409.052 			"/>
		</g>
		<g>
			<polygon style="fill:#455A64;" points="449.545,376.52 450.911,383.708 449.545,384.053 450.911,384.496 452.277,391.487 
				450.57,391.832 452.277,392.423 453.188,397.002 444.992,397.002 447.439,386.761 448.748,386.416 447.61,386.121 			"/>
			<polygon style="opacity:0.2;" points="449.545,376.52 450.911,383.708 449.545,384.053 450.911,384.496 452.277,391.487 
				450.57,391.832 452.277,392.423 453.188,397.002 444.992,397.002 447.439,386.761 448.748,386.416 447.61,386.121 			"/>
		</g>
		<g>
			<polygon style="fill:#455A64;" points="466.251,379.691 467.617,386.879 466.251,387.224 467.617,387.667 468.983,394.659 
				467.275,395.003 468.983,395.594 469.894,400.173 461.697,400.173 464.145,389.932 465.454,389.587 464.316,389.292 			"/>
			<polygon style="opacity:0.2;" points="466.251,379.691 467.617,386.879 466.251,387.224 467.617,387.667 468.983,394.659 
				467.275,395.003 468.983,395.594 469.894,400.173 461.697,400.173 464.145,389.932 465.454,389.587 464.316,389.292 			"/>
		</g>
		<path style="opacity:0.8;fill:#FFFFFF;" d="M268.892,413.284c0,0.792-2.518,1.433-5.624,1.433c-3.106,0-5.624-0.642-5.624-1.433
			s2.518-1.433,5.624-1.433C266.374,411.85,268.892,412.492,268.892,413.284z"/>
		<polygon style="fill:#FF725E;" points="298.954,436.067 301.281,431.693 307.187,432.429 309.496,436.067 		"/>
	</g>
	<g>
		<g style="opacity:0.8;">
			<path style="fill:#FFFFFF;" d="M242.573,363.608c13.017,0.785,26.034,1.569,39.051,2.354c1.005,0.061,2.052,0.133,2.925,0.636
				c0.873,0.503,1.507,1.575,1.172,2.525c-0.334,0.95-1.884,1.273-2.36,0.385c0.844,1.985,3.529,2.141,5.685,2.203
				c2.235,0.065,5.116,1.048,4.886,3.379c-0.091,0.917-0.673,1.716-1.441,2.225c-5.835,3.867-13.524,1.346-19.986,3.582
				c-3.4,1.177-6.214,3.586-9.383,5.291c-6.353,3.419-13.825,3.874-21.025,4.326c-4.014,0.252-8.163,0.563-11.716,2.448
				c-1.477,0.783-2.811,1.821-4.307,2.567c-3.394,1.693-7.338,1.767-11.131,1.806c-11.449,0.118-22.898,0.237-34.347,0.355
				c-5.943,0.061-12.028,0.148-17.593,2.234c0.019,0.027,0.038,0.054,0.058,0.082c2.508,3.526,1.277,8.44-2.686,10.177l-10.34,4.533
				l-29.107-2.866l-1.118-12.204v-8.724l121.667-27.648"/>
		</g>
		<path style="fill:#FF725E;" d="M117.945,415.235c0,0-9.344-16.51,28.699-19.572c38.042-3.062,131.814-15.307,128.81-21.77
			c-3.003-6.463-10.345-10.205-14.349-10.885c-4.004-0.68-8.676-6.342-8.676-6.342s-29.7-7.265-30.701-6.925
			c-1.001,0.34-103.243-7.372-104.577-7.372l-102.095-7.255c0,0-2.111,76.196,0,76.196
			C17.166,411.31,117.945,415.235,117.945,415.235z"/>
		<path style="fill:#455A64;" d="M266.803,365.155c-2.102-1.159-4.15-1.884-5.698-2.148c-4.004-0.68-8.676-6.342-8.676-6.342
			s-29.7-7.265-30.701-6.925c-1.001,0.34-103.243-7.372-104.577-7.372c-1.335,0-102.095-7.255-102.095-7.255s-2.111,76.196,0,76.196
			c1.115,0,29.742,1.094,56.514,2.127l36.735-3.335c-0.69,0.428-5.821-18.814,4.869-22.662c10.69-3.848,87.656-8.825,111.173-10.826
			C247.825,374.616,266.741,365.186,266.803,365.155z"/>
		<path style="opacity:0.3;" d="M266.803,365.155c-2.102-1.159-4.15-1.884-5.698-2.148c-4.004-0.68-8.676-6.342-8.676-6.342
			s-29.7-7.265-30.701-6.925c-1.001,0.34-103.243-7.372-104.577-7.372c-1.335,0-102.095-7.255-102.095-7.255s-2.111,76.196,0,76.196
			c1.115,0,29.742,1.094,56.514,2.127l36.735-3.335c-0.69,0.428-5.821-18.814,4.869-22.662c10.69-3.848,87.656-8.825,111.173-10.826
			C247.825,374.616,266.741,365.186,266.803,365.155z"/>
		<g>
			<polygon style="fill:#455A64;" points="26.053,307.059 28.738,321.186 26.053,321.863 28.738,322.734 31.422,336.473 
				28.066,337.151 31.422,338.312 33.212,347.31 17.104,347.31 21.914,327.185 24.487,326.507 22.25,325.927 			"/>
			<polygon style="fill:#455A64;" points="52.525,315.952 54.955,328.737 52.525,329.35 54.955,330.138 57.385,342.573 
				54.347,343.185 57.385,344.236 59.004,352.38 44.427,352.38 48.78,334.166 51.108,333.553 49.083,333.028 			"/>
			<g>
				<polyline style="fill:#455A64;" points="48.052,344.529 42.386,320.818 39.354,320.02 41.99,319.336 37.509,297.107 
					34.347,313.751 37.509,314.549 34.347,315.575 31.184,331.762 35.137,332.56 31.184,333.928 29.075,344.529 				"/>
			</g>
			<polygon style="fill:#455A64;" points="65.438,307.059 68.123,321.186 65.438,321.863 68.123,322.734 70.808,336.473 
				67.452,337.151 70.808,338.312 72.597,347.31 56.49,347.31 61.3,327.185 63.872,326.507 61.635,325.927 			"/>
			<polygon style="fill:#455A64;" points="91.911,315.952 94.34,328.737 91.911,329.35 94.34,330.138 96.77,342.573 93.733,343.185 
				96.77,344.236 98.39,352.38 83.812,352.38 88.165,334.166 90.493,333.553 88.469,333.028 			"/>
			<g>
				<polyline style="fill:#455A64;" points="87.438,344.529 81.771,320.818 78.74,320.02 81.375,319.336 76.895,297.107 
					73.732,313.751 76.895,314.549 73.732,315.575 70.569,331.762 74.522,332.56 70.569,333.928 68.46,344.529 				"/>
			</g>
			<polyline style="fill:#455A64;" points="103.384,346.881 106.74,348.042 108.53,357.04 92.422,357.04 97.232,336.915 
				99.805,336.237 97.568,335.657 101.371,316.789 104.055,330.916 101.371,331.593 104.055,332.464 106.74,346.203 			"/>
			<polygon style="fill:#455A64;" points="127.545,306.677 130.593,322.717 127.545,323.486 130.593,324.474 133.642,340.075 
				129.831,340.844 133.642,342.163 135.674,352.38 117.384,352.38 122.846,329.528 125.767,328.759 123.227,328.1 			"/>
			<polygon style="fill:#455A64;" points="163.352,316.36 166.401,332.4 163.352,333.169 166.401,334.158 169.449,349.759 
				165.639,350.528 169.449,351.846 171.481,362.064 153.191,362.064 158.653,339.212 161.574,338.443 159.034,337.784 			"/>
			<polygon style="fill:#455A64;" points="205.233,327.189 208.281,343.229 205.233,343.998 208.281,344.987 211.33,360.587 
				207.519,361.356 211.33,362.675 213.362,372.892 195.072,372.892 200.534,350.04 203.455,349.271 200.915,348.612 			"/>
			<g>
				<polyline style="fill:#455A64;" points="123.37,356.401 117.703,332.691 114.672,331.893 117.308,331.209 112.827,308.98 
					109.664,325.623 112.827,326.421 109.664,327.447 106.501,343.634 110.455,344.432 106.501,345.8 104.393,356.401 				"/>
			</g>
			<g>
				<polyline style="fill:#455A64;" points="183.95,364.154 178.283,340.443 175.252,339.645 177.887,338.961 173.407,316.732 
					170.244,333.375 173.407,334.173 170.244,335.199 167.081,351.386 171.035,352.184 167.081,353.552 164.972,364.154 				"/>
			</g>
			<g>
				<polyline style="fill:#455A64;" points="203.795,366.217 198.128,342.506 195.097,341.708 197.733,341.024 193.252,318.795 
					190.089,335.439 193.252,336.237 190.089,337.262 186.926,353.45 190.88,354.248 186.926,355.616 184.817,366.217 				"/>
			</g>
			<g>
				<polyline style="fill:#455A64;" points="144.821,353.728 140.803,336.915 138.653,336.349 140.522,335.864 137.345,320.101 
					135.102,331.903 137.345,332.469 135.102,333.196 132.859,344.675 135.663,345.241 132.859,346.211 131.364,353.728 				"/>
			</g>
			<g>
				<polyline style="fill:#455A64;" points="161.486,359.358 157.468,342.545 155.318,341.979 157.187,341.494 154.01,325.731 
					151.767,337.533 154.01,338.099 151.767,338.826 149.524,350.305 152.328,350.871 149.524,351.841 148.029,359.358 				"/>
			</g>
			<g>
				<polyline style="fill:#455A64;" points="225.206,355.007 221.188,338.194 219.038,337.628 220.907,337.143 217.73,321.38 
					215.487,333.182 217.73,333.748 215.487,334.475 213.244,345.954 216.048,346.52 213.244,347.49 211.749,355.007 				"/>
			</g>
			<g>
				<polyline style="fill:#455A64;" points="239.156,367.34 235.138,350.526 232.988,349.961 234.857,349.475 231.68,333.713 
					229.437,345.515 231.68,346.081 229.437,346.808 227.194,358.286 229.998,358.852 227.194,359.822 225.699,367.34 				"/>
			</g>
			<g>
				<polyline style="fill:#455A64;" points="249.776,368.291 246.638,355.163 244.96,354.721 246.419,354.342 243.938,342.035 
					242.187,351.25 243.938,351.691 242.187,352.259 240.436,361.222 242.625,361.664 240.436,362.421 239.269,368.291 				"/>
			</g>
		</g>
		<g style="opacity:0.3;">
			<polygon points="207.519,361.356 211.33,360.587 208.281,344.987 205.233,343.998 208.281,343.229 205.233,327.189 
				200.915,348.612 203.455,349.271 200.534,350.04 200.231,351.306 198.128,342.506 195.097,341.708 197.733,341.024 
				193.252,318.795 190.089,335.439 193.252,336.237 190.089,337.263 186.926,353.45 190.88,354.248 186.926,355.616 
				184.817,366.217 196.667,366.217 195.072,372.892 213.362,372.892 211.33,362.675 			"/>
			<path d="M175.252,339.645l2.636-0.684l-4.481-22.229l-3.163,16.643l3.163,0.798l-3.163,1.026l-1.82,9.314l-2.023-10.355
				l-3.048-0.989l3.048-0.769l-3.048-16.04l-4.318,21.423l2.54,0.659l-2.921,0.769l-0.991,4.146l-0.194-0.813l-2.149-0.566
				l1.869-0.485l-3.177-15.763l-2.243,11.802l2.243,0.566l-2.243,0.728l-2.243,11.478l2.803,0.566l-2.803,0.97l-1.495,7.517h5.809
				l-0.647,2.705h12.197l-0.416,2.09h18.977l-5.667-23.711L175.252,339.645z M171.035,352.184l-1.421,0.492l-0.161-0.811
				L171.035,352.184z M167.315,350.19l-0.168,0.86l-1.508-0.522L167.315,350.19z"/>
			<path d="M138.653,336.349l1.869-0.485l-3.177-15.763l-2.243,11.802l2.243,0.566l-2.243,0.727l-1.733,8.872l-3.537-1.224
				l3.81-0.769l-3.048-15.601l-3.048-0.989l3.048-0.769l-3.048-16.04l-4.318,21.423l2.54,0.659l-2.921,0.769l-2.949,12.339
				l-2.193-9.177l-3.031-0.798l2.636-0.684l-4.481-22.229l-3.163,16.643l3.163,0.798l-3.163,1.026l-3.163,16.187l3.954,0.798
				l-3.804,1.316l-2.596-13.284l-2.685-0.871l2.685-0.677l-2.685-14.127l-3.803,18.868l2.237,0.581l-2.573,0.677l-0.862,3.609
				l-2.029-10.385l-2.429-0.788l2.429-0.613l-2.429-12.785l-3.442,17.075l2.025,0.525l-2.328,0.613l-1.602,6.703l-4.792-20.051
				l-3.031-0.798l2.636-0.684l-4.481-22.229l-3.163,16.643l3.163,0.798l-3.163,1.026l-3.163,16.187l3.954,0.798l-3.954,1.368
				l-0.13,0.656l-2.315-11.85l-2.685-0.871l2.685-0.677l-2.685-14.126l-3.803,18.867l2.237,0.581l-2.573,0.677l-4.063,17l-2.889-1
				l3.037-0.613l-2.43-12.435l-2.43-0.788l2.43-0.613l-2.43-12.785l-3.442,17.075l2.025,0.525l-2.328,0.613l-1.602,6.703
				l-4.792-20.051l-3.031-0.798l2.636-0.684l-4.481-22.229l-3.163,16.643l3.163,0.798l-3.163,1.026l-3.163,16.187l3.953,0.798
				l-3.953,1.368l-0.131,0.656l-2.315-11.85l-2.685-0.871l2.685-0.677l-2.685-14.126l-3.803,18.867l2.237,0.581l-2.573,0.677
				l-4.81,20.125h16.108l-0.553-2.781h13.644l-1.876,7.85h14.578l-1.008-5.07h14.601l-0.553-2.781h13.644l-1.876,7.85h9.724
				l-1.114,4.66h16.108l-0.127-0.639h14.967l-0.961-4.022h9.223l-0.268,1.348h13.457l-4.019-16.814L138.653,336.349z M30.646,336.63
				l-0.263,1.322l-2.317-0.801L30.646,336.63z M70.031,336.63l-0.263,1.322l-2.317-0.801L70.031,336.63z M93.733,343.185
				l2.102-0.424l-0.254,1.063L93.733,343.185z M106.408,346.27l-0.308,1.55l-2.715-0.939L106.408,346.27z M135.663,345.241
				l-1.318,0.456l-0.15-0.752L135.663,345.241z"/>
			<polygon points="219.038,337.628 220.907,337.143 217.73,321.38 215.487,333.182 217.73,333.748 215.487,334.475 
				213.244,345.954 216.048,346.519 213.244,347.49 211.749,355.007 225.206,355.007 221.188,338.194 			"/>
			<polygon points="232.988,349.961 234.857,349.475 231.68,333.713 229.437,345.515 231.68,346.081 229.437,346.808 
				227.194,358.286 229.998,358.852 227.194,359.822 225.699,367.34 239.156,367.34 235.138,350.526 			"/>
			<polygon points="246.638,355.163 244.96,354.721 246.419,354.342 243.939,342.035 242.187,351.25 243.939,351.691 
				242.187,352.259 240.436,361.222 242.625,361.664 240.436,362.421 239.269,368.291 249.776,368.291 			"/>
		</g>
		<g>
			<polygon style="fill:#455A64;" points="119.25,343.986 121.662,356.675 119.25,357.283 121.662,358.066 124.073,370.407 
				121.059,371.015 124.073,372.058 125.681,380.141 111.212,380.141 115.533,362.064 117.844,361.455 115.834,360.934 			"/>
			<polygon style="opacity:0.2;" points="119.25,343.986 121.662,356.675 119.25,357.283 121.662,358.066 124.073,370.407 
				121.059,371.015 124.073,372.058 125.681,380.141 111.212,380.141 115.533,362.064 117.844,361.455 115.834,360.934 			"/>
		</g>
		<g>
			<polygon style="fill:#455A64;" points="106.255,325.534 109.27,341.401 106.255,342.162 109.27,343.14 112.286,358.573 
				108.517,359.334 112.286,360.638 114.296,370.745 96.203,370.745 101.606,348.139 104.496,347.379 101.983,346.727 			"/>
			<polygon style="opacity:0.2;" points="106.255,325.534 109.27,341.401 106.255,342.162 109.27,343.14 112.286,358.573 
				108.517,359.334 112.286,360.638 114.296,370.745 96.203,370.745 101.606,348.139 104.496,347.379 101.983,346.727 			"/>
		</g>
		<g>
			<polygon style="fill:#455A64;" points="77.773,318.264 80.789,334.131 77.773,334.892 80.789,335.87 83.804,351.303 
				80.035,352.064 83.804,353.368 85.815,363.475 67.722,363.475 73.124,340.869 76.014,340.109 73.501,339.457 			"/>
			<polygon style="opacity:0.2;" points="77.773,318.264 80.789,334.131 77.773,334.892 80.789,335.87 83.804,351.303 
				80.035,352.064 83.804,353.368 85.815,363.475 67.722,363.475 73.124,340.869 76.014,340.109 73.501,339.457 			"/>
		</g>
		<g>
			<polygon style="fill:#455A64;" points="93.244,342.035 95.709,355.005 93.244,355.627 95.709,356.427 98.174,369.042 
				95.092,369.664 98.174,370.73 99.817,378.992 85.027,378.992 89.444,360.513 91.806,359.892 89.752,359.358 			"/>
			<polygon style="opacity:0.2;" points="93.244,342.035 95.709,355.005 93.244,355.627 95.709,356.427 98.174,369.042 
				95.092,369.664 98.174,370.73 99.817,378.992 85.027,378.992 89.444,360.513 91.806,359.892 89.752,359.358 			"/>
		</g>
		<g>
			<polygon style="fill:#455A64;" points="65.614,334.114 68.079,347.085 65.614,347.707 68.079,348.506 70.544,361.121 
				67.462,361.743 70.544,362.81 72.187,371.072 57.397,371.072 61.814,352.593 64.176,351.971 62.122,351.438 			"/>
			<polygon style="opacity:0.2;" points="65.614,334.114 68.079,347.085 65.614,347.707 68.079,348.506 70.544,361.121 
				67.462,361.743 70.544,362.81 72.187,371.072 57.397,371.072 61.814,352.593 64.176,351.971 62.122,351.438 			"/>
		</g>
		<g>
			<polygon style="fill:#455A64;" points="47.549,328.442 50.014,341.413 47.549,342.034 50.014,342.834 52.479,355.449 
				49.397,356.071 52.479,357.137 54.122,365.399 39.332,365.399 43.749,346.921 46.111,346.299 44.057,345.766 			"/>
			<polygon style="opacity:0.2;" points="47.549,328.442 50.014,341.413 47.549,342.034 50.014,342.834 52.479,355.449 
				49.397,356.071 52.479,357.137 54.122,365.399 39.332,365.399 43.749,346.921 46.111,346.299 44.057,345.766 			"/>
		</g>
		<g>
			<polygon style="fill:#455A64;" points="28.181,329.594 30.646,342.565 28.181,343.186 30.646,343.986 33.111,356.601 
				30.03,357.223 33.111,358.289 34.755,366.551 19.965,366.551 24.381,348.073 26.743,347.451 24.689,346.918 			"/>
			<polygon style="opacity:0.2;" points="28.181,329.594 30.646,342.565 28.181,343.186 30.646,343.986 33.111,356.601 
				30.03,357.223 33.111,358.289 34.755,366.551 19.965,366.551 24.381,348.073 26.743,347.451 24.689,346.918 			"/>
		</g>
		<g>
			<polygon style="fill:#455A64;" points="130.864,341.409 132.678,350.954 130.864,351.411 132.678,352 134.492,361.283 
				132.225,361.741 134.492,362.525 135.701,368.605 124.818,368.605 128.068,355.007 129.806,354.549 128.294,354.157 			"/>
			<polygon style="opacity:0.2;" points="130.864,341.409 132.678,350.954 130.864,351.411 132.678,352 134.492,361.283 
				132.225,361.741 134.492,362.525 135.701,368.605 124.818,368.605 128.068,355.007 129.806,354.549 128.294,354.157 			"/>
		</g>
		<g>
			<polygon style="fill:#455A64;" points="147.415,336.802 149.714,348.898 147.415,349.478 149.714,350.224 152.013,361.989 
				149.139,362.569 152.013,363.563 153.545,371.269 139.752,371.269 143.871,354.035 146.074,353.455 144.158,352.958 			"/>
			<polygon style="opacity:0.2;" points="147.415,336.802 149.714,348.898 147.415,349.478 149.714,350.224 152.013,361.989 
				149.139,362.569 152.013,363.563 153.545,371.269 139.752,371.269 143.871,354.035 146.074,353.455 144.158,352.958 			"/>
		</g>
		<g>
			<polygon style="fill:#455A64;" points="137.169,357.062 138.54,364.276 137.169,364.622 138.54,365.067 139.911,372.083 
				138.197,372.429 139.911,373.022 140.825,377.617 132.599,377.617 135.056,367.34 136.37,366.994 135.227,366.698 			"/>
			<polygon style="opacity:0.2;" points="137.169,357.062 138.54,364.276 137.169,364.622 138.54,365.067 139.911,372.083 
				138.197,372.429 139.911,373.022 140.825,377.617 132.599,377.617 135.056,367.34 136.37,366.994 135.227,366.698 			"/>
		</g>
		<g>
			<polygon style="fill:#455A64;" points="158.878,346.124 160.249,353.338 158.878,353.684 160.249,354.129 161.62,361.145 
				159.906,361.491 161.62,362.084 162.534,366.679 154.308,366.679 156.764,356.401 158.078,356.056 156.935,355.759 			"/>
			<polygon style="opacity:0.2;" points="158.878,346.124 160.249,353.338 158.878,353.684 160.249,354.129 161.62,361.145 
				159.906,361.491 161.62,362.084 162.534,366.679 154.308,366.679 156.764,356.401 158.078,356.056 156.935,355.759 			"/>
		</g>
		<g>
			<polygon style="fill:#455A64;" points="177.249,333.387 179.46,345.018 177.249,345.576 179.46,346.293 181.67,357.605 
				178.907,358.163 181.67,359.119 183.144,366.528 169.881,366.528 173.842,349.957 175.96,349.4 174.118,348.922 			"/>
			<polygon style="opacity:0.2;" points="177.249,333.387 179.46,345.018 177.249,345.576 179.46,346.293 181.67,357.605 
				178.907,358.163 181.67,359.119 183.144,366.528 169.881,366.528 173.842,349.957 175.96,349.4 174.118,348.922 			"/>
		</g>
		<g>
			<polygon style="fill:#455A64;" points="189.077,351.986 190.496,359.453 189.077,359.811 190.496,360.271 191.915,367.534 
				190.141,367.892 191.915,368.506 192.861,373.262 184.346,373.262 186.889,362.624 188.249,362.266 187.066,361.959 			"/>
			<polygon style="opacity:0.2;" points="189.077,351.986 190.496,359.453 189.077,359.811 190.496,360.271 191.915,367.534 
				190.141,367.892 191.915,368.506 192.861,373.262 184.346,373.262 186.889,362.624 188.249,362.266 187.066,361.959 			"/>
		</g>
		<g>
			<polygon style="fill:#455A64;" points="200.397,331.858 202.406,342.429 200.397,342.935 202.406,343.587 204.415,353.868 
				201.904,354.375 204.415,355.243 205.754,361.977 193.701,361.977 197.3,346.918 199.225,346.411 197.551,345.976 			"/>
			<polygon style="opacity:0.2;" points="200.397,331.858 202.406,342.429 200.397,342.935 202.406,343.587 204.415,353.868 
				201.904,354.375 204.415,355.243 205.754,361.977 193.701,361.977 197.3,346.918 199.225,346.411 197.551,345.976 			"/>
		</g>
		<g>
			<polygon style="fill:#455A64;" points="213.193,349.957 214.398,356.299 213.193,356.603 214.398,356.994 215.603,363.161 
				214.097,363.465 215.603,363.987 216.407,368.026 209.176,368.026 211.335,358.992 212.49,358.688 211.486,358.427 			"/>
			<polygon style="opacity:0.2;" points="213.193,349.957 214.398,356.299 213.193,356.603 214.398,356.994 215.603,363.161 
				214.097,363.465 215.603,363.987 216.407,368.026 209.176,368.026 211.335,358.992 212.49,358.688 211.486,358.427 			"/>
		</g>
		<polygon style="fill:#FF725E;" points="193.58,405.275 195.907,400.901 201.813,401.637 204.122,405.275 		"/>
		<path style="fill:#FF725E;" d="M204.986,403.3l2.297-1.128c0,0,1.695,0.891,1.808,0.916c0.113,0.025,1.092,0.251,1.092,0.251
			L204.986,403.3z"/>
	</g>
	<g>
		<polygon style="fill:#FF725E;" points="248.252,487.133 487.506,486.121 487.506,461.74 251.113,482.002 		"/>
		<polygon style="fill:#455A64;" points="362.759,455.561 288.709,464.375 254.284,478.612 251.113,482.002 298.77,482.002 
			310.307,478.372 487.506,486.121 487.506,426.882 		"/>
		<g>
			<polygon style="fill:#455A64;" points="400.327,414.717 397.916,427.406 400.327,428.014 397.916,428.796 395.504,441.138 
				398.519,441.746 395.504,442.789 393.897,450.872 408.366,450.872 404.045,432.794 401.734,432.186 403.744,431.664 			"/>
			<polygon style="fill:#455A64;" points="374.02,412.606 370.706,430.042 374.02,430.878 370.706,431.953 367.392,448.911 
				371.534,449.747 367.392,451.18 365.183,462.287 385.065,462.287 379.128,437.446 375.952,436.61 378.714,435.894 			"/>
			<polygon style="fill:#455A64;" points="356.043,420.383 353.64,433.031 356.043,433.638 353.64,434.418 351.236,446.719 
				354.241,447.325 351.236,448.365 349.634,456.422 364.056,456.422 359.749,438.402 357.446,437.796 359.449,437.276 			"/>
			<polygon style="fill:#455A64;" points="362.11,437.903 359.707,450.551 362.11,451.158 359.707,451.938 357.303,464.239 
				360.308,464.845 357.303,465.885 355.701,473.942 370.122,473.942 365.816,455.922 363.512,455.316 365.516,454.796 			"/>
			<polygon style="fill:#455A64;" points="389.518,427.267 387.651,437.09 389.518,437.561 387.651,438.166 385.784,447.72 
				388.118,448.191 385.784,448.998 384.54,455.255 395.74,455.255 392.396,441.261 390.607,440.79 392.162,440.386 			"/>
			<polygon style="fill:#455A64;" points="338.326,405.821 334.459,426.169 338.326,427.144 334.459,428.399 330.592,448.189 
				335.425,449.165 330.592,450.837 328.014,463.799 351.216,463.799 344.287,434.81 340.581,433.834 343.804,432.998 			"/>
			<polygon style="fill:#455A64;" points="319.437,423.361 316.612,438.227 319.437,438.94 316.612,439.856 313.787,454.315 
				317.318,455.027 313.787,456.249 311.903,465.719 328.854,465.719 323.792,444.54 321.085,443.827 323.439,443.216 			"/>
			<polygon style="fill:#455A64;" points="429.454,410.693 427.043,423.383 429.454,423.991 427.043,424.773 424.631,437.115 
				427.645,437.723 424.631,438.766 423.024,446.849 437.492,446.849 433.172,428.771 430.861,428.163 432.87,427.641 			"/>
			<polygon style="fill:#455A64;" points="461.555,400.333 459.144,413.022 461.555,413.631 459.144,414.413 456.732,426.754 
				459.747,427.363 456.732,428.406 455.125,436.488 469.593,436.488 465.273,418.411 462.962,417.802 464.972,417.281 			"/>
			<g>
				<polyline style="fill:#455A64;" points="455.123,457.107 447.94,427.056 444.099,426.044 447.439,425.177 441.76,397.004 
					437.752,418.098 441.76,419.109 437.752,420.41 433.743,440.925 438.754,441.937 433.743,443.67 431.071,457.107 				"/>
			</g>
			<g>
				<polyline style="fill:#455A64;" points="422.932,450.872 417.51,428.182 414.609,427.419 417.131,426.764 412.844,405.492 
					409.817,421.419 412.844,422.182 409.817,423.164 406.79,438.654 410.574,439.418 406.79,440.727 404.772,450.872 				"/>
				<g>
					<path style="fill:#263238;" d="M404.772,450.872c0.005,0.001,0.022-0.056,0.05-0.169c0.03-0.131,0.069-0.298,0.117-0.507
						c0.101-0.471,0.243-1.131,0.424-1.977c0.362-1.755,0.884-4.282,1.541-7.469l-0.077,0.088c1.149-0.392,2.426-0.827,3.789-1.292
						l0.47-0.16l-0.488-0.1c-1.193-0.245-2.457-0.505-3.78-0.777l0.117,0.175c0.883-4.466,1.923-9.721,3.062-15.483l-0.125,0.141
						c0.946-0.305,1.979-0.639,3.028-0.978l0.627-0.202l-0.639-0.162c-0.948-0.24-1.98-0.502-3.026-0.767l0.142,0.223
						c0.784-4.117,1.622-8.511,2.484-13.039c0.184-0.969,0.367-1.933,0.548-2.887l-0.391,0.002
						c1.549,7.647,3.01,14.853,4.309,21.267l0.129-0.206c-0.859,0.225-1.698,0.444-2.521,0.66l-0.636,0.167l0.635,0.166
						c0.994,0.259,1.959,0.511,2.902,0.757l-0.118-0.121c1.663,6.832,3.04,12.493,4.008,16.47c0.487,1.957,0.871,3.499,1.14,4.576
						c0.132,0.508,0.236,0.907,0.311,1.199c0.073,0.27,0.115,0.409,0.123,0.407c0.008-0.002-0.017-0.144-0.074-0.418
						c-0.064-0.295-0.152-0.697-0.264-1.21c-0.248-1.082-0.602-2.631-1.052-4.596c-0.935-3.985-2.266-9.657-3.872-16.503
						l-0.022-0.096l-0.096-0.025c-0.942-0.25-1.906-0.507-2.899-0.77l-0.001,0.332c0.824-0.212,1.663-0.428,2.523-0.649l0.162-0.042
						l-0.033-0.165c-1.287-6.417-2.732-13.626-4.266-21.276l-0.2-0.999l-0.19,1.001c-0.181,0.954-0.365,1.917-0.549,2.886
						c-0.858,4.528-1.691,8.923-2.472,13.041l-0.034,0.179l0.176,0.044c1.046,0.263,2.079,0.522,3.027,0.76l-0.012-0.364
						c-1.048,0.341-2.08,0.678-3.025,0.986l-0.104,0.034l-0.021,0.107c-1.113,5.767-2.128,11.027-2.991,15.497l-0.028,0.146
						l0.145,0.029c1.326,0.263,2.592,0.513,3.786,0.75l-0.017-0.26c-1.359,0.477-2.632,0.924-3.777,1.326l-0.064,0.023l-0.013,0.065
						c-0.612,3.196-1.097,5.73-1.434,7.49c-0.156,0.852-0.278,1.515-0.365,1.989c-0.035,0.211-0.064,0.38-0.086,0.513
						C404.773,450.811,404.767,450.871,404.772,450.872z"/>
				</g>
			</g>
			<g>
				<polyline style="fill:#455A64;" points="481.864,435.141 476.441,412.451 473.54,411.688 476.063,411.033 471.775,389.762 
					468.748,405.688 471.775,406.452 468.748,407.433 465.721,422.923 469.505,423.687 465.721,424.996 463.704,435.141 				"/>
				<g>
					<path style="fill:#263238;" d="M463.703,435.141c0.005,0.001,0.022-0.056,0.05-0.169c0.03-0.131,0.069-0.298,0.117-0.507
						c0.101-0.471,0.243-1.131,0.424-1.977c0.362-1.755,0.884-4.282,1.541-7.469l-0.077,0.088c1.149-0.392,2.426-0.827,3.789-1.292
						l0.47-0.16l-0.488-0.1c-1.192-0.245-2.457-0.505-3.78-0.777l0.117,0.175c0.883-4.466,1.923-9.721,3.062-15.483l-0.125,0.141
						c0.946-0.305,1.979-0.639,3.028-0.978l0.627-0.202l-0.639-0.162c-0.948-0.24-1.98-0.502-3.026-0.767l0.142,0.223
						c0.785-4.117,1.622-8.511,2.484-13.039c0.184-0.969,0.367-1.933,0.548-2.887l-0.391,0.002
						c1.549,7.647,3.009,14.853,4.309,21.267l0.129-0.206c-0.86,0.225-1.698,0.444-2.521,0.66l-0.636,0.166l0.635,0.166
						c0.994,0.259,1.959,0.511,2.902,0.757l-0.118-0.121c1.663,6.832,3.04,12.493,4.008,16.47c0.487,1.957,0.871,3.499,1.14,4.576
						c0.132,0.508,0.236,0.907,0.311,1.199c0.073,0.27,0.115,0.409,0.123,0.407c0.008-0.002-0.017-0.144-0.074-0.418
						c-0.064-0.295-0.152-0.697-0.264-1.21c-0.248-1.082-0.602-2.631-1.052-4.596c-0.935-3.985-2.266-9.657-3.872-16.503
						l-0.022-0.095l-0.096-0.025c-0.942-0.25-1.906-0.507-2.899-0.771l-0.001,0.332c0.824-0.212,1.663-0.428,2.523-0.649
						l0.162-0.042l-0.033-0.165c-1.287-6.417-2.732-13.626-4.266-21.276l-0.2-0.999l-0.19,1.001
						c-0.181,0.954-0.365,1.917-0.549,2.886c-0.858,4.528-1.691,8.923-2.472,13.041l-0.034,0.179l0.176,0.044
						c1.046,0.263,2.079,0.522,3.027,0.76l-0.012-0.364c-1.048,0.341-2.08,0.678-3.025,0.986l-0.104,0.034l-0.021,0.107
						c-1.113,5.767-2.128,11.027-2.991,15.497l-0.028,0.146l0.145,0.029c1.326,0.263,2.592,0.513,3.786,0.75l-0.017-0.26
						c-1.359,0.477-2.632,0.924-3.777,1.326l-0.064,0.023l-0.013,0.065c-0.612,3.196-1.097,5.73-1.434,7.49
						c-0.156,0.852-0.278,1.515-0.364,1.989c-0.035,0.211-0.064,0.38-0.086,0.513C463.704,435.081,463.698,435.14,463.703,435.141z"
						/>
				</g>
			</g>
		</g>
	</g>
	<g>
		<g style="opacity:0.8;">
			<path style="fill:#FFFFFF;" d="M225.279,436.069c-22.283,0.491-25.641,2.658-47.924,3.149L15.906,468.839
				c31.312,1.552,62.624,3.104,93.936,4.656c13.355,0.662,26.905,1.305,39.93-2.036c7.492-1.922,14.715-5.143,22.32-6.41
				c6.214-1.035,12.727-0.784,18.511-3.512c4.118-1.942,7.612-5.292,11.768-7.13c6.671-2.951,14.146-1.689,21.326-1.584
				c8.058,0.118,16.132-1.299,23.764-4.171c2.458-0.925,5.275-2.583,5.411-5.463C253.067,439.027,229.027,435.986,225.279,436.069z"
				/>
		</g>
		<path style="fill:#FF725E;" d="M224.733,436.004c0,0-28.743-18.32-35.083-20.444c-6.34-2.124-85.095-10.089-85.095-10.089
			l-48.721-16.727l-42.489-5.31v85.492c0,0,100.22,4.514,118.908-1.858s33.037-6.372,46.385-10.089
			c13.348-3.717,12.013-7.965,12.013-7.965s39.131-3.093,45.05-8.231C239.372,437.596,224.733,436.004,224.733,436.004z"/>
		<path style="fill:#455A64;" d="M195.12,418.17c-2.37-1.275-4.302-2.219-5.47-2.61c-6.34-2.124-85.095-10.089-85.095-10.089
			l-18.988-6.519l-29.733-10.208l-42.489-5.31l0,73.496c9.908,0.143,96.278,1.311,104.712-1.511
			c8.948-2.993,28.443-7.933,37.712-9.953s27.668-3.517,27.668-3.517l-11.689-6.486c0,0,16.938-7.725,21.732-10.224
			C196.07,423.889,195.859,420.761,195.12,418.17z"/>
		<g>
			<polygon style="fill:#455A64;" points="98.913,370.268 101.316,384.416 98.913,385.094 101.316,385.966 103.718,399.727 
				100.715,400.405 103.718,401.568 105.319,410.58 90.906,410.58 95.21,390.424 97.512,389.746 95.51,389.164 			"/>
			<polygon style="fill:#455A64;" points="125.121,367.915 128.422,387.355 125.121,388.288 128.422,389.486 131.723,408.394 
				127.597,409.326 131.723,410.924 133.923,423.307 114.118,423.307 120.032,395.611 123.195,394.679 120.445,393.88 			"/>
			<polygon style="fill:#455A64;" points="145.619,379.773 148.014,393.876 145.619,394.552 148.014,395.421 150.408,409.137 
				147.415,409.813 150.408,410.972 152.005,419.955 137.638,419.955 141.928,399.864 144.222,399.188 142.227,398.609 			"/>
			<polygon style="fill:#455A64;" points="134.722,390.489 137.116,404.591 134.722,405.268 137.116,406.137 139.51,419.853 
				136.518,420.529 139.51,421.688 141.107,430.671 126.74,430.671 131.03,410.58 133.325,409.904 131.329,409.324 			"/>
			<polygon style="fill:#455A64;" points="111.832,385.282 113.692,396.234 111.832,396.759 113.692,397.434 115.551,408.086 
				113.227,408.611 115.551,409.512 116.791,416.488 105.633,416.488 108.965,400.885 110.747,400.36 109.197,399.91 			"/>
			<polygon style="fill:#455A64;" points="160.679,360.349 164.531,383.037 160.679,384.125 164.531,385.523 168.383,407.589 
				163.568,408.677 168.383,410.542 170.951,424.994 147.838,424.994 154.74,392.671 158.432,391.584 155.221,390.651 			"/>
			<polygon style="fill:#455A64;" points="179.495,379.907 182.31,396.482 179.495,397.276 182.31,398.298 185.124,414.419 
				181.606,415.214 185.124,416.576 187,427.134 170.114,427.134 175.157,403.52 177.854,402.726 175.508,402.044 			"/>
			<polygon style="fill:#455A64;" points="70.602,354.118 73.004,368.266 70.602,368.944 73.004,369.816 75.406,383.577 
				72.404,384.255 75.406,385.418 77.008,394.43 62.594,394.43 66.898,374.274 69.201,373.596 67.199,373.014 			"/>
			<polygon style="fill:#455A64;" points="43.732,350.474 46.134,364.622 43.732,365.3 46.134,366.172 48.536,379.933 
				45.534,380.611 48.536,381.774 50.138,390.786 35.724,390.786 40.028,370.63 42.331,369.952 40.328,369.37 			"/>
			<g>
				<polyline style="fill:#455A64;" points="44.327,417.532 51.482,384.026 55.309,382.898 51.981,381.931 57.638,350.519 
					61.631,374.038 57.638,375.166 61.631,376.616 65.625,399.49 60.633,400.618 65.625,402.551 68.287,417.532 				"/>
				<g>
					<path style="fill:#263238;" d="M68.287,417.532c-0.007,0.002-0.029-0.083-0.066-0.25c-0.04-0.194-0.091-0.44-0.154-0.748
						c-0.133-0.696-0.32-1.67-0.56-2.919c-0.478-2.592-1.166-6.323-2.033-11.029l0.101,0.13c-1.516-0.578-3.201-1.221-4.999-1.908
						l-0.62-0.237l0.643-0.148c1.573-0.362,3.241-0.746,4.988-1.148l-0.154,0.258c-1.165-6.595-2.537-14.356-4.04-22.864
						l0.164,0.208c-1.248-0.451-2.612-0.944-3.995-1.444l-0.827-0.299l0.843-0.239c1.25-0.355,2.613-0.741,3.992-1.133l-0.188,0.329
						c-1.035-6.08-2.14-12.569-3.278-19.254c-0.243-1.432-0.484-2.854-0.723-4.263l0.515,0.003
						c-2.044,11.292-3.971,21.933-5.686,31.405l-0.17-0.305c1.134,0.332,2.24,0.656,3.326,0.974l0.839,0.246l-0.838,0.245
						c-1.311,0.383-2.585,0.754-3.829,1.117l0.156-0.178c-2.194,10.09-4.012,18.448-5.289,24.322
						c-0.643,2.89-1.15,5.166-1.504,6.757c-0.174,0.751-0.311,1.339-0.411,1.77c-0.097,0.399-0.152,0.603-0.162,0.601
						c-0.011-0.003,0.022-0.213,0.098-0.618c0.085-0.436,0.201-1.029,0.349-1.787c0.327-1.598,0.795-3.885,1.389-6.788
						c1.234-5.885,2.989-14.26,5.109-24.37l0.029-0.141l0.126-0.038c1.243-0.37,2.515-0.748,3.824-1.138l0.001,0.49
						c-1.087-0.313-2.194-0.632-3.329-0.959l-0.214-0.062l0.044-0.243c1.698-9.476,3.605-20.122,5.629-31.418l0.264-1.475
						l0.251,1.478c0.239,1.409,0.481,2.831,0.724,4.262c1.133,6.687,2.232,13.177,3.262,19.258l0.045,0.264l-0.233,0.065
						c-1.38,0.388-2.743,0.771-3.994,1.123l0.016-0.538c1.382,0.504,2.745,1.001,3.992,1.456l0.137,0.05l0.027,0.158
						c1.469,8.516,2.808,16.283,3.947,22.885l0.037,0.216l-0.192,0.042c-1.749,0.388-3.419,0.758-4.995,1.108l0.023-0.385
						c1.793,0.704,3.473,1.365,4.984,1.958l0.085,0.033l0.017,0.097c0.807,4.72,1.448,8.462,1.892,11.061
						c0.206,1.258,0.366,2.237,0.481,2.937c0.047,0.312,0.084,0.561,0.113,0.758C68.286,417.443,68.294,417.53,68.287,417.532z"/>
				</g>
			</g>
			<g>
				<polyline style="fill:#455A64;" points="76.394,410.58 81.796,385.282 84.686,384.43 82.173,383.701 86.445,359.983 
					89.46,377.741 86.445,378.592 89.46,379.687 92.475,396.958 88.706,397.809 92.475,399.269 94.485,410.58 				"/>
				<g>
					<path style="fill:#263238;" d="M94.485,410.58c-0.005,0.001-0.022-0.063-0.05-0.189c-0.03-0.146-0.068-0.332-0.117-0.565
						c-0.101-0.525-0.242-1.261-0.423-2.204c-0.361-1.957-0.88-4.774-1.535-8.327l0.076,0.098c-1.145-0.437-2.417-0.922-3.775-1.44
						l-0.468-0.179l0.486-0.112c1.188-0.273,2.447-0.563,3.766-0.867l-0.116,0.195c-0.88-4.98-1.915-10.839-3.05-17.263l0.124,0.157
						c-0.942-0.34-1.972-0.713-3.016-1.09l-0.624-0.226l0.636-0.18c0.944-0.268,1.973-0.56,3.014-0.855l-0.142,0.249
						c-0.782-4.591-1.616-9.49-2.475-14.538c-0.183-1.081-0.366-2.155-0.546-3.218l0.389,0.003
						c-1.543,8.526-2.998,16.56-4.293,23.712l-0.129-0.23c0.856,0.251,1.691,0.495,2.511,0.736l0.633,0.186l-0.633,0.185
						c-0.99,0.289-1.952,0.57-2.891,0.844l0.118-0.135c-1.657,7.618-3.029,13.929-3.993,18.364
						c-0.486,2.182-0.868,3.901-1.135,5.102c-0.132,0.567-0.235,1.011-0.31,1.337c-0.073,0.302-0.114,0.456-0.123,0.454
						c-0.008-0.002,0.017-0.161,0.074-0.467c0.064-0.329,0.152-0.777,0.263-1.349c0.247-1.206,0.6-2.933,1.048-5.125
						c0.931-4.444,2.257-10.767,3.857-18.4l0.022-0.106l0.096-0.029c0.938-0.279,1.899-0.565,2.887-0.859l0.001,0.37
						c-0.821-0.236-1.657-0.477-2.514-0.724l-0.161-0.047l0.033-0.184c1.282-7.155,2.722-15.193,4.25-23.722l0.2-1.114l0.19,1.116
						c0.181,1.064,0.363,2.137,0.547,3.218c0.855,5.049,1.685,9.949,2.463,14.54l0.034,0.199l-0.176,0.049
						c-1.042,0.293-2.071,0.582-3.016,0.848l0.012-0.406c1.044,0.381,2.072,0.756,3.014,1.099l0.104,0.038l0.021,0.119
						c1.109,6.43,2.12,12.294,2.98,17.279l0.028,0.163l-0.145,0.032c-1.321,0.293-2.582,0.572-3.771,0.836l0.017-0.291
						c1.354,0.532,2.622,1.03,3.763,1.479l0.064,0.025l0.013,0.073c0.61,3.563,1.093,6.389,1.429,8.351
						c0.156,0.949,0.277,1.689,0.363,2.217c0.035,0.236,0.063,0.424,0.086,0.572C94.484,410.513,94.491,410.579,94.485,410.58z"/>
				</g>
			</g>
			<g>
				<polyline style="fill:#455A64;" points="23.501,389.284 28.903,363.985 31.792,363.134 29.28,362.404 33.551,338.687 
					36.566,356.444 33.551,357.296 36.566,358.39 39.582,375.661 35.813,376.513 39.582,377.972 41.592,389.284 				"/>
				<g>
					<path style="fill:#263238;" d="M41.592,389.284c-0.005,0.001-0.022-0.063-0.05-0.189c-0.03-0.146-0.069-0.332-0.117-0.565
						c-0.101-0.525-0.242-1.261-0.423-2.204c-0.361-1.957-0.88-4.774-1.535-8.327l0.076,0.098c-1.145-0.437-2.417-0.922-3.775-1.44
						l-0.468-0.179l0.486-0.112c1.188-0.273,2.447-0.563,3.766-0.867l-0.116,0.195c-0.88-4.98-1.915-10.839-3.05-17.263l0.124,0.157
						c-0.942-0.34-1.972-0.713-3.016-1.09l-0.624-0.226l0.637-0.18c0.944-0.268,1.973-0.56,3.014-0.855l-0.142,0.249
						c-0.781-4.591-1.615-9.49-2.475-14.538c-0.183-1.081-0.366-2.155-0.546-3.218l0.389,0.002
						c-1.544,8.526-2.998,16.56-4.293,23.712l-0.128-0.23c0.856,0.251,1.691,0.495,2.511,0.736l0.633,0.186l-0.633,0.185
						c-0.99,0.289-1.952,0.57-2.891,0.844l0.118-0.135c-1.656,7.618-3.029,13.929-3.993,18.364
						c-0.486,2.182-0.868,3.901-1.135,5.102c-0.132,0.567-0.235,1.011-0.31,1.337c-0.073,0.302-0.114,0.456-0.123,0.454
						c-0.008-0.002,0.017-0.161,0.074-0.467c0.064-0.329,0.152-0.777,0.263-1.349c0.247-1.206,0.6-2.933,1.048-5.125
						c0.932-4.444,2.257-10.767,3.857-18.4l0.022-0.106l0.095-0.029c0.938-0.279,1.899-0.565,2.888-0.859l0,0.37
						c-0.821-0.236-1.657-0.477-2.514-0.724l-0.162-0.047l0.033-0.184c1.282-7.155,2.722-15.193,4.25-23.722l0.2-1.114l0.19,1.116
						c0.181,1.064,0.363,2.137,0.547,3.218c0.855,5.049,1.685,9.949,2.463,14.54l0.034,0.199l-0.176,0.05
						c-1.042,0.293-2.071,0.582-3.016,0.848l0.012-0.406c1.043,0.381,2.072,0.756,3.014,1.099l0.104,0.038l0.021,0.119
						c1.109,6.43,2.12,12.294,2.98,17.279l0.028,0.163l-0.145,0.032c-1.321,0.293-2.582,0.572-3.771,0.836l0.017-0.291
						c1.354,0.532,2.622,1.03,3.763,1.479l0.064,0.025l0.012,0.073c0.61,3.564,1.093,6.389,1.429,8.351
						c0.155,0.949,0.277,1.689,0.363,2.217c0.035,0.236,0.063,0.424,0.085,0.572C41.591,389.216,41.597,389.282,41.592,389.284z"/>
				</g>
			</g>
		</g>
		<polygon style="fill:#FF725E;" points="192.525,468.754 196.508,463.927 203.628,461.74 213.042,463.806 215.576,465.616 
			216.904,468.754 		"/>
	</g>
</g>
<g id="Birds">
	<g>
		<g>
			<g>
				<g>
					<g>
						<path style="fill:#263238;" d="M135.627,82.753c-0.011,0.032-0.559-0.193-1.593-0.423c-1.029-0.226-2.573-0.426-4.446-0.171
							c-1.859,0.249-4.063,0.996-5.991,2.584c-1.924,1.558-3.571,3.917-4.229,6.715c-0.006,0.025-0.013,0.051-0.019,0.074
							l-0.123,0.48l-0.184-0.455c-1.076-2.658-2.989-4.771-5.063-6.114c-2.08-1.368-4.317-1.934-6.183-2.062
							c-1.878-0.131-3.402,0.139-4.418,0.404c-1.02,0.269-1.558,0.506-1.57,0.475c-0.004-0.01,0.128-0.074,0.384-0.185
							c0.256-0.113,0.642-0.261,1.153-0.411c1.015-0.305,2.554-0.615,4.466-0.511c1.899,0.1,4.193,0.654,6.33,2.039
							c2.131,1.36,4.097,3.515,5.202,6.243l-0.308,0.025c0.006-0.024,0.013-0.05,0.02-0.077c0.676-2.877,2.374-5.289,4.356-6.873
							c1.987-1.615,4.253-2.356,6.149-2.579c1.911-0.23,3.474,0.009,4.504,0.275c0.518,0.13,0.912,0.265,1.172,0.371
							C135.496,82.683,135.631,82.743,135.627,82.753z"/>
					</g>
				</g>
			</g>
		</g>
		<g>
			<g>
				<g>
					<g>
						<path style="fill:#263238;" d="M174.379,98.432c-0.01,0.027-0.314-0.088-0.883-0.205c-0.565-0.115-1.411-0.216-2.432-0.071
							c-1.015,0.143-2.212,0.555-3.26,1.422c-1.046,0.851-1.94,2.137-2.297,3.658l-0.01,0.041l-0.123,0.48l-0.184-0.455
							c-0.586-1.446-1.625-2.599-2.754-3.334c-1.131-0.748-2.348-1.062-3.368-1.139c-1.025-0.078-1.86,0.061-2.419,0.198
							c-0.561,0.139-0.861,0.26-0.871,0.234c-0.004-0.01,0.066-0.05,0.206-0.116c0.139-0.067,0.351-0.153,0.632-0.24
							c0.558-0.177,1.408-0.356,2.467-0.305c1.052,0.049,2.326,0.351,3.515,1.117c1.184,0.752,2.278,1.947,2.892,3.463l-0.307,0.025
							l0.011-0.042c0.376-1.6,1.322-2.939,2.425-3.816c1.106-0.894,2.367-1.3,3.418-1.417c1.06-0.121,1.923,0.02,2.491,0.175
							c0.285,0.076,0.501,0.155,0.643,0.218C174.311,98.384,174.383,98.422,174.379,98.432z"/>
					</g>
				</g>
			</g>
		</g>
		<g>
			<g>
				<g>
					<g>
						<path style="fill:#263238;" d="M155.577,55.57c0.02,0.02-0.304,0.349-0.855,0.969c-0.551,0.62-1.302,1.561-2.086,2.816
							c-1.576,2.479-3.152,6.43-3.098,10.963c0,0.047-0.001,0.095-0.001,0.138l-0.321,0.027c-0.335-2.212-1.073-4.241-2.004-5.937
							c-0.929-1.701-2.021-3.083-3.052-4.123c-1.03-1.043-1.969-1.779-2.646-2.243c-0.675-0.467-1.066-0.702-1.052-0.727
							c0.005-0.01,0.108,0.04,0.299,0.143c0.188,0.109,0.479,0.248,0.822,0.48c0.702,0.436,1.673,1.151,2.737,2.187
							c1.065,1.032,2.192,2.419,3.151,4.14c0.961,1.715,1.722,3.779,2.064,6.034l-0.321,0.026c0-0.044,0.001-0.092,0.001-0.141
							c-0.055-4.612,1.585-8.614,3.228-11.089c0.817-1.254,1.603-2.182,2.186-2.779c0.281-0.309,0.531-0.518,0.689-0.67
							C155.481,55.636,155.569,55.562,155.577,55.57z"/>
					</g>
				</g>
			</g>
		</g>
	</g>
</g>
</svg>
