<svg version="1.1" xmlns="http://www.w3.org/2000/svg" xmlns:xlink="http://www.w3.org/1999/xlink" x="0px" y="0px"
	 viewBox="0 0 750 500" style="enable-background:new 0 0 750 500;">
<g id="OBJECTS">
	<g>
		<defs>
			<rect id="SVGID_1_" width="750" height="500"/>
		</defs>
		<clipPath id="SVGID_00000170988804614467209050000008777911350666202807_">
			<use xlink:href="#SVGID_1_"  style="overflow:visible;"/>
		</clipPath>
		
			<circle style="clip-path:url(#SVGID_00000170988804614467209050000008777911350666202807_);fill:#FFFDB8;" cx="180.132" cy="168.87" r="52.13"/>
		<g style="clip-path:url(#SVGID_00000170988804614467209050000008777911350666202807_);">
			<path style="fill:#6FADA8;" d="M-4.435,184.3L99.69,169.425c1.53-0.219,3.09-0.098,4.569,0.354l48.676,14.873
				c2.005,0.613,4.148,0.613,6.153,0.001l84.182-25.683c0.822-0.251,1.609-0.601,2.346-1.043l61.849-37.11
				c2.855-1.713,6.353-1.976,9.432-0.708l18.175,7.484c1.595,0.657,3.328,0.912,5.045,0.743l101.051-9.963
				c1.853-0.183,3.721,0.129,5.414,0.903l49.238,22.509c0.449,0.205,0.883,0.442,1.299,0.708l36.076,23.089
				c0.532,0.34,1.092,0.632,1.676,0.872c8.503,3.492,75.997,31.137,81.617,31.137c5.745,0,78.87,15.126,85.076,16.412
				c0.285,0.059,0.565,0.105,0.854,0.14l51.802,6.317c5.286,0.645,9.26,5.133,9.26,10.458v236.623
				c0,5.818-4.717,10.535-10.535,10.535H-2.945c-5.818,0-10.535-4.717-10.535-10.535V194.729
				C-13.481,189.486-9.625,185.041-4.435,184.3z"/>
			<polygon style="fill:#7FBAB4;" points="441.168,118.374 486.544,163 493.223,191 537.546,200 586.002,245.788 709.149,251.894 
				756.981,237.086 744.662,219.295 696.943,213.049 616.488,197.592 533.194,165.583 495.82,141.786 446.582,119.277 			"/>
		</g>
		<path style="clip-path:url(#SVGID_00000170988804614467209050000008777911350666202807_);fill:#4F8C84;" d="M-4.444,224.791
			l145.834-20.959c1.113-0.16,2.244-0.141,3.351,0.057l59.602,10.643c1.142,0.204,2.242,0.595,3.256,1.157l63.045,34.949
			c2.794,1.549,6.14,1.746,9.097,0.537l27.466-11.236c0.569-0.233,1.117-0.515,1.637-0.843l52.686-33.276
			c2.267-1.432,4.995-1.946,7.628-1.436l40.877,7.912c1.009,0.195,1.985,0.537,2.895,1.015l25.707,13.496
			c1.9,0.997,4.059,1.391,6.189,1.128l62.784-7.758c0.957-0.118,1.925-0.105,2.878,0.041l52.522,8.001
			c0.525,0.08,1.055,0.12,1.587,0.12h82.782c0.775,0,1.548,0.086,2.304,0.255l39.179,8.782c2.072,0.464,4.236,0.292,6.208-0.495
			l53.971-21.531c6.919-2.76,14.439,2.336,14.439,9.785v242.406c0,5.818-4.717,10.535-10.535,10.535H-2.945
			c-5.818,0-10.535-4.717-10.535-10.535V235.22C-13.481,229.98-9.63,225.537-4.444,224.791z"/>
		<g style="clip-path:url(#SVGID_00000170988804614467209050000008777911350666202807_);">
			<path style="fill:#467970;" d="M65.609,304.591l42.394-30.628c0.867-0.626,1.908-0.963,2.977-0.963h22.403
				c1.342,0,2.63-0.531,3.583-1.477l29.245-29.054c1.946-1.934,5.076-1.974,7.071-0.092l13.135,12.389
				c0.626,0.591,1.393,1.013,2.227,1.227l26.817,6.869c0.36,0.092,0.709,0.224,1.04,0.392l40.472,20.553
				c0.684,0.347,1.437,0.535,2.203,0.55l135.445,2.621c0.783,0.015,1.552,0.211,2.247,0.572l37.847,19.68
				c4.741,2.465,2.956,9.638-2.388,9.594l-363.784-3.028C63.634,313.755,61.629,307.467,65.609,304.591z"/>
			<g>
				{/* Tree paths retained, as they are part of the visible objects */}
				<path style="fill:#467970;" d="M223.113,262.699l4.872,1.439l-0.917-2.879h4.815l-9.401-5.346l6.42,1.851l-7.107-5.757
					l6.42,2.673l-7.566-7.402l5.961,1.028l-7.566-4.318l4.872,0.823c0,0-5.789-4.523-7.967-8.841
					c-2.178,4.318-7.967,8.841-7.967,8.841l4.872-0.823l-7.566,4.318l5.961-1.028l-7.566,7.402l6.42-2.673l-7.107,5.757l6.42-1.851
					l-9.401,5.346h4.815l-0.917,2.879l4.872-1.439l-7.165,5.963l5.961-1.439l-3.439,2.879l10.677-2.603v11.444h2.262v-11.444
					l10.677,2.603l-3.439-2.879l5.961,1.439L223.113,262.699z"/>
				{/* ... other tree paths ... */}
				<path style="fill:#467970;" d="M558.333,261.139l4.384,1.295l-0.825-2.59h4.333l-8.459-4.811l5.777,1.665l-6.396-5.181
					l5.777,2.405l-6.808-6.661l5.364,0.925l-6.808-3.885l4.384,0.74c0,0-5.21-4.071-7.169-7.956c-1.96,3.885-7.17,7.956-7.17,7.956
					l4.384-0.74l-6.808,3.885l5.364-0.925l-6.808,6.661l5.777-2.405l-6.396,5.181l5.777-1.665l-8.459,4.811h4.333l-0.825,2.59
					l4.384-1.295l-6.447,5.366l5.364-1.295l-3.095,2.59l9.607-2.342v10.298h2.035v-10.298l9.607,2.342l-3.095-2.59l5.364,1.295
					L558.333,261.139z"/>
			</g>
			<path style="fill:#467970;" d="M464.406,316.851l33.866-26.642c0.922-0.725,2.019-1.196,3.18-1.365l54.726-7.94
				c0.626-0.091,1.235-0.27,1.811-0.531l57.588-26.179c1.303-0.592,2.762-0.752,4.163-0.455l64.536,13.691
				c1.203,0.255,2.453,0.174,3.613-0.234l66.669-23.453c4.357-1.533,8.922,1.7,8.922,6.32v72.604c0,3.705-3.007,6.706-6.712,6.699
				l-288.233-0.551C462.182,328.803,459.412,320.78,464.406,316.851z"/>
		</g>
		{/* Removed the opacity:0.29 group and the five ellipse elements at the end */}
		<g style="clip-path:url(#SVGID_00000170988804614467209050000008777911350666202807_);">
			<path style="fill:#325B57;" d="M11.423,416.034l13.382,3.953l-2.519-7.906h13.226L9.691,397.398l17.633,5.083L7.802,386.668
				l17.633,7.342L4.654,373.678l16.373,2.824l-20.781-11.86l13.383,2.259c0,0-15.901-12.425-21.884-24.284
				c-5.983,11.86-21.884,24.284-21.884,24.284l13.383-2.259l-20.781,11.86l16.373-2.824l-20.781,20.331l17.633-7.342l-19.522,15.813
				l17.633-5.083l-25.821,14.684h13.226l-2.519,7.906l13.382-3.953l-19.679,16.378l16.373-3.953l-9.446,7.906l29.325-7.149v31.434
				h6.212v-31.434l29.325,7.149l-9.446-7.906l16.373,3.953L11.423,416.034z"/>
			<!-- ... other paths for trees ... -->
			<path style="fill:#325B57;" d="M719.044,501.441l12.218,3.609l-2.3-7.219h12.075l-23.574-13.406l16.098,4.641l-17.823-14.437
				l16.098,6.703l-18.973-18.562l14.948,2.578l-18.973-10.828l12.218,2.063c0,0-14.518-11.343-19.98-22.171
				c-5.462,10.828-19.98,22.171-19.98,22.171l12.218-2.063l-18.973,10.828l14.949-2.578l-18.973,18.562l16.098-6.703l-17.823,14.437
				l16.098-4.641l-23.574,13.406h12.075l-2.3,7.219l12.218-3.609l-17.967,14.953l14.948-3.609l-8.624,7.219l26.774-6.527v28.698
				h5.672v-28.698l26.774,6.527l-8.624-7.219l14.948,3.609L719.044,501.441z"/>
		</g>
		<path style="opacity:0.44;clip-path:url(#SVGID_00000170988804614467209050000008777911350666202807_);fill:#FFFFFF;" d="
			M440.363,101.845c-1.174-13.762,9.874-26.684,23.2-30.314c13.326-3.63,27.884,0.708,39.121,8.739
			c7.182,5.132,13.39,11.761,21.365,15.545c17.005,8.067,37.263,1.254,53.738-7.847c16.475-9.101,32.498-20.734,51.219-22.68
			c29.82-3.1,60.012,19.199,88.313,9.302c9.612-3.361,17.74-10.181,27.409-13.375c7.56-2.497,15.674-2.65,23.634-2.512
			c11.133,0.193,22.661,1.018,32.478,6.274c15.174,8.123,23.621,24.968,30.621,40.691L440.363,101.845z"/>
		<path style="opacity:0.44;clip-path:url(#SVGID_00000170988804614467209050000008777911350666202807_);fill:#FFFFFF;" d="
			M-133.947,84.027c-1.528-17.909,12.849-34.725,30.191-39.449S-67.471,45.5-52.847,55.95c9.346,6.679,17.425,15.305,27.803,20.229
			c22.129,10.498,48.492,1.632,69.931-10.211s42.292-26.982,66.653-29.514c38.806-4.035,78.096,24.985,114.924,12.105
			c12.508-4.374,23.086-13.249,35.668-17.406c9.837-3.25,20.396-3.449,30.755-3.269c14.488,0.251,29.49,1.325,42.264,8.164
			C354.897,46.619,365.89,68.539,375,89L-133.947,84.027z"/>
		<path style="opacity:0.44;clip-path:url(#SVGID_00000170988804614467209050000008777911350666202807_);fill:#FFFFFF;" d="
			M-95.896,108.268C-81.776,86.316-52.6,75.323-27.505,82.5c10.5,3.003,20.03,8.758,30.451,12.026
			c14.066,4.412,29.136,4.12,43.851,3.237c9.757-0.586,19.672-1.452,28.747-5.083c11.531-4.614,20.838-13.316,30.621-20.967
			c11.428-8.938,23.989-16.706,37.849-20.994c13.118-4.058,26.999-4.888,40.727-5.201c23.205-0.53,47.077,0.47,68.415,9.604
			c21.338,9.134,40.073,27.898,42.961,50.928L-95.896,108.268z"/>
		<path style="opacity:0.44;clip-path:url(#SVGID_00000170988804614467209050000008777911350666202807_);fill:#FFFFFF;" d="
			M517.104,111.268c14.12-21.952,43.296-32.944,68.391-25.767c10.5,3.003,20.03,8.758,30.451,12.026
			c14.066,4.412,29.136,4.12,43.851,3.237c9.757-0.586,19.672-1.452,28.747-5.083c11.531-4.614,20.838-13.316,30.621-20.967
			c11.428-8.938,23.99-16.706,37.849-20.994c13.118-4.058,26.999-4.888,40.727-5.201c23.205-0.53,47.077,0.47,68.415,9.604
			c21.338,9.134,40.073,27.898,42.961,50.928L517.104,111.268z"/>
	</g>
</g>
</svg>
